<svg width="178" height="71" viewBox="0 0 178 71" fill="none" xmlns="http://www.w3.org/2000/svg">
<g clip-path="url(#clip0)">
<path opacity="0.46" d="M5.14 11.2C4.72357 11.2277 4.30684 11.1507 3.9278 10.976C3.54877 10.8014 3.21949 10.5346 2.97 10.2C2.45499 9.42288 2.20264 8.50112 2.25 7.57002C2.21545 6.65915 2.46725 5.76036 2.97 5.00002C3.21949 4.66545 3.54877 4.39867 3.9278 4.224C4.30684 4.04933 4.72357 3.97232 5.14 4.00002C5.55643 3.97232 5.97316 4.04933 6.3522 4.224C6.73124 4.39867 7.06051 4.66545 7.31 5.00002C7.82502 5.77716 8.07736 6.69892 8.03 7.63002C8.07736 8.56112 7.82502 9.48288 7.31 10.26C7.05397 10.5836 6.72181 10.8388 6.34318 11.0028C5.96454 11.1668 5.55119 11.2346 5.14 11.2V11.2ZM4.14 5.90002C3.88176 6.42547 3.75154 7.00459 3.76 7.59002C3.7348 8.17152 3.8479 8.75071 4.09 9.28002C4.17595 9.47272 4.31645 9.63602 4.49417 9.74976C4.67188 9.86349 4.87902 9.92268 5.09 9.92002C5.30098 9.92268 5.50812 9.86349 5.68583 9.74976C5.86355 9.63602 6.00406 9.47272 6.09 9.28002C6.3321 8.75071 6.4452 8.17152 6.42 7.59002C6.46927 7.01491 6.38367 6.43623 6.17 5.90002C6.08301 5.7081 5.94226 5.5455 5.76478 5.43192C5.58731 5.31833 5.38071 5.25862 5.17 5.26002C4.94925 5.24656 4.72963 5.30058 4.5403 5.41489C4.35097 5.5292 4.2009 5.6984 4.11 5.90002H4.14Z" fill="#284B00"/>
<path opacity="0.24" d="M9.89999 4.13H12.76V11.13H11.23V5.46H9.89999V4.13Z" fill="#284B00"/>
<path opacity="0.89" d="M18.07 11.2C17.6536 11.2277 17.2368 11.1507 16.8578 10.976C16.4788 10.8014 16.1495 10.5346 15.9 10.2C15.385 9.42288 15.1326 8.50112 15.18 7.57002C15.1454 6.65915 15.3972 5.76036 15.9 5.00002C16.1495 4.66545 16.4788 4.39867 16.8578 4.224C17.2368 4.04933 17.6536 3.97232 18.07 4.00002C18.4864 3.97232 18.9032 4.04933 19.2822 4.224C19.6612 4.39867 19.9905 4.66545 20.24 5.00002C20.755 5.77716 21.0074 6.69892 20.96 7.63002C21.0074 8.56112 20.755 9.48288 20.24 10.26C19.984 10.5836 19.6518 10.8388 19.2732 11.0028C18.8945 11.1668 18.4812 11.2346 18.07 11.2V11.2ZM17.07 5.90002C16.8358 6.43133 16.7297 7.01019 16.76 7.59002C16.7348 8.17152 16.8479 8.75071 17.09 9.28002C17.1759 9.47272 17.3164 9.63602 17.4942 9.74976C17.6719 9.86349 17.879 9.92268 18.09 9.92002C18.301 9.92268 18.5081 9.86349 18.6858 9.74976C18.8635 9.63602 19.004 9.47272 19.09 9.28002C19.3321 8.75071 19.4452 8.17152 19.42 7.59002C19.4472 7.00939 19.3376 6.4305 19.1 5.90002C19.0048 5.70825 18.8579 5.54688 18.6759 5.43407C18.494 5.32126 18.2841 5.26149 18.07 5.26149C17.8559 5.26149 17.646 5.32126 17.4641 5.43407C17.2821 5.54688 17.1352 5.70825 17.04 5.90002H17.07Z" fill="#284B00"/>
<path opacity="0.42" d="M22.83 4.13H25.66V11.13H24.16V5.46H22.83V4.13Z" fill="#284B00"/>
<path opacity="0.84" d="M31 11.2C30.5836 11.2277 30.1668 11.1507 29.7878 10.976C29.4088 10.8014 29.0795 10.5346 28.83 10.2C28.315 9.42288 28.0626 8.50112 28.11 7.57002C28.0755 6.65915 28.3273 5.76036 28.83 5.00002C29.0795 4.66545 29.4088 4.39867 29.7878 4.224C30.1668 4.04933 30.5836 3.97232 31 4.00002C31.4164 3.97232 31.8332 4.04933 32.2122 4.224C32.5912 4.39867 32.9205 4.66545 33.17 5.00002C33.685 5.77716 33.9374 6.69892 33.89 7.63002C33.9374 8.56112 33.685 9.48288 33.17 10.26C32.914 10.5836 32.5818 10.8388 32.2032 11.0028C31.8245 11.1668 31.4112 11.2346 31 11.2ZM30 5.90002C29.759 6.42967 29.6459 7.0086 29.67 7.59002C29.6448 8.17152 29.7579 8.75071 30 9.28002C30.0952 9.47178 30.2421 9.63315 30.4241 9.74597C30.606 9.85878 30.8159 9.91855 31.03 9.91855C31.2441 9.91855 31.454 9.85878 31.6359 9.74597C31.8179 9.63315 31.9648 9.47178 32.06 9.28002C32.3021 8.75071 32.4152 8.17152 32.39 7.59002C32.4141 7.0086 32.301 6.42967 32.06 5.90002C31.9648 5.70825 31.8179 5.54688 31.6359 5.43407C31.454 5.32126 31.2441 5.26149 31.03 5.26149C30.8159 5.26149 30.606 5.32126 30.4241 5.43407C30.2421 5.54688 30.0952 5.70825 30 5.90002V5.90002Z" fill="#284B00"/>
<path opacity="0.36" d="M35.76 4.13H38.59V11.13H37.09V5.46H35.76V4.13Z" fill="#284B00"/>
<path opacity="0.25" d="M43.93 11.2C43.5136 11.2277 43.0968 11.1507 42.7178 10.976C42.3388 10.8014 42.0095 10.5346 41.76 10.2C41.245 9.42288 40.9926 8.50112 41.04 7.57002C41.0054 6.65915 41.2572 5.76036 41.76 5.00002C42.0095 4.66545 42.3388 4.39867 42.7178 4.224C43.0968 4.04933 43.5136 3.97232 43.93 4.00002C44.3462 3.97414 44.7623 4.05196 45.141 4.22649C45.5198 4.40102 45.8493 4.6668 46.1 5.00002C46.615 5.77716 46.8674 6.69892 46.82 7.63002C46.8674 8.56112 46.615 9.48288 46.1 10.26C45.8434 10.5829 45.5111 10.8376 45.1326 11.0016C44.7541 11.1655 44.3411 11.2337 43.93 11.2V11.2ZM42.93 5.90002C42.689 6.42967 42.5759 7.0086 42.6 7.59002C42.5748 8.17152 42.6879 8.75071 42.93 9.28002C43.0252 9.47178 43.1721 9.63315 43.3541 9.74597C43.536 9.85878 43.7459 9.91855 43.96 9.91855C44.1741 9.91855 44.384 9.85878 44.5659 9.74597C44.7479 9.63315 44.8948 9.47178 44.99 9.28002C45.2321 8.75071 45.3452 8.17152 45.32 7.59002C45.3347 7.0062 45.2113 6.42716 44.96 5.90002C44.8648 5.70825 44.7179 5.54688 44.5359 5.43407C44.354 5.32126 44.1441 5.26149 43.93 5.26149C43.7159 5.26149 43.506 5.32126 43.3241 5.43407C43.1421 5.54688 42.9952 5.70825 42.9 5.90002H42.93Z" fill="#284B00"/>
<path opacity="0.76" d="M51.83 11.2C51.4136 11.2277 50.9968 11.1507 50.6178 10.976C50.2388 10.8014 49.9095 10.5346 49.66 10.2C49.145 9.42286 48.8926 8.5011 48.94 7.57C48.9055 6.65914 49.1573 5.76034 49.66 5C49.9294 4.68874 50.2626 4.43909 50.6371 4.26797C51.0115 4.09686 51.4183 4.0083 51.83 4.0083C52.2417 4.0083 52.6485 4.09686 53.0229 4.26797C53.3974 4.43909 53.7306 4.68874 54 5C54.5209 5.76121 54.787 6.66801 54.76 7.59C54.8074 8.5211 54.555 9.44286 54.04 10.22C53.7839 10.5562 53.4471 10.8223 53.0608 10.9936C52.6744 11.1649 52.2511 11.2359 51.83 11.2V11.2ZM50.76 5.9C50.519 6.42966 50.4059 7.00859 50.43 7.59C50.4048 8.17151 50.5179 8.75069 50.76 9.28C50.8552 9.47177 51.0021 9.63314 51.1841 9.74595C51.366 9.85876 51.5759 9.91854 51.79 9.91854C52.0041 9.91854 52.214 9.85876 52.3959 9.74595C52.5779 9.63314 52.7248 9.47177 52.82 9.28C53.0621 8.75069 53.1752 8.17151 53.15 7.59C53.1866 7.01175 53.0873 6.43296 52.86 5.9C52.7694 5.69723 52.6221 5.52503 52.4357 5.40419C52.2494 5.28335 52.0321 5.21905 51.81 5.21905C51.5879 5.21905 51.3706 5.28335 51.1843 5.40419C50.9979 5.52503 50.8506 5.69723 50.76 5.9V5.9Z" fill="#284B00"/>
<path opacity="0.38" d="M59.76 11.2C59.3436 11.2277 58.9268 11.1507 58.5478 10.976C58.1688 10.8014 57.8395 10.5346 57.59 10.2C57.075 9.42286 56.8226 8.5011 56.87 7.57C56.8266 6.66237 57.0678 5.76384 57.56 5C57.8294 4.68874 58.1626 4.43909 58.5371 4.26797C58.9115 4.09686 59.3183 4.0083 59.73 4.0083C60.1417 4.0083 60.5485 4.09686 60.9229 4.26797C61.2973 4.43909 61.6306 4.68874 61.9 5C62.415 5.77714 62.6674 6.69891 62.62 7.63C62.6674 8.5611 62.415 9.48286 61.9 10.26C61.6463 10.5785 61.3189 10.8305 60.9461 10.9943C60.5733 11.1581 60.1662 11.2287 59.76 11.2ZM58.76 5.9C58.519 6.42966 58.4059 7.00859 58.43 7.59C58.4048 8.17151 58.5179 8.75069 58.76 9.28C58.8552 9.47177 59.0021 9.63314 59.1841 9.74595C59.366 9.85876 59.5759 9.91854 59.79 9.91854C60.0041 9.91854 60.214 9.85876 60.3959 9.74595C60.5779 9.63314 60.7248 9.47177 60.82 9.28C61.0621 8.75069 61.1752 8.17151 61.15 7.59C61.1553 7.00377 61.0217 6.42461 60.76 5.9C60.6648 5.70824 60.5179 5.54687 60.3359 5.43405C60.154 5.32124 59.9441 5.26147 59.73 5.26147C59.5159 5.26147 59.306 5.32124 59.1241 5.43405C58.9421 5.54687 58.7952 5.70824 58.7 5.9H58.76Z" fill="#284B00"/>
<path opacity="0.34" d="M64.49 4.13H67.32V11.13H65.82V5.46H64.49V4.13Z" fill="#284B00"/>
<path opacity="0.2" d="M69.52 4.13H72.35V11.13H70.85V5.46H69.52V4.13Z" fill="#284B00"/>
<path opacity="0.86" d="M77.69 11.2C77.2736 11.2277 76.8569 11.1507 76.4778 10.976C76.0988 10.8014 75.7695 10.5346 75.52 10.2C74.995 9.43323 74.7287 8.51877 74.76 7.59C74.733 6.66801 74.9991 5.76121 75.52 5C75.7894 4.68874 76.1227 4.43909 76.4971 4.26797C76.8715 4.09686 77.2783 4.0083 77.69 4.0083C78.1017 4.0083 78.5085 4.09686 78.8829 4.26797C79.2574 4.43909 79.5906 4.68874 79.86 5C80.375 5.77714 80.6274 6.69891 80.58 7.63C80.6274 8.5611 80.375 9.48286 79.86 10.26C79.6034 10.5829 79.2711 10.8376 78.8926 11.0016C78.5142 11.1655 78.1011 11.2337 77.69 11.2V11.2ZM76.69 5.9C76.449 6.42966 76.3359 7.00859 76.36 7.59C76.3348 8.17151 76.4479 8.75069 76.69 9.28C76.7852 9.47177 76.9321 9.63314 77.1141 9.74595C77.296 9.85876 77.5059 9.91854 77.72 9.91854C77.9341 9.91854 78.144 9.85876 78.3259 9.74595C78.5079 9.63314 78.6548 9.47177 78.75 9.28C78.9921 8.75069 79.1052 8.17151 79.08 7.59C79.1072 7.00938 78.9976 6.43049 78.76 5.9C78.6648 5.70824 78.5179 5.54687 78.3359 5.43405C78.154 5.32124 77.9441 5.26147 77.73 5.26147C77.5159 5.26147 77.3061 5.32124 77.1241 5.43405C76.9421 5.54687 76.7952 5.70824 76.7 5.9H76.69Z" fill="#284B00"/>
<path opacity="0.74" d="M82.45 4.13H85.28V11.13H83.76V5.46H82.45V4.13Z" fill="#284B00"/>
<path opacity="0.36" d="M90.62 11.2C90.2036 11.2277 89.7868 11.1507 89.4078 10.976C89.0288 10.8014 88.6995 10.5346 88.45 10.2C87.9497 9.42494 87.7081 8.51111 87.76 7.59002C87.7123 6.67566 87.9538 5.76949 88.45 5.00002C88.7193 4.6938 89.0509 4.4485 89.4224 4.28046C89.794 4.11243 90.1972 4.02551 90.605 4.02551C91.0128 4.02551 91.416 4.11243 91.7875 4.28046C92.1591 4.4485 92.4907 4.6938 92.76 5.00002C93.275 5.77716 93.5274 6.69893 93.48 7.63002C93.5188 8.54764 93.2668 9.45408 92.76 10.22C92.5106 10.5459 92.1851 10.8056 91.812 10.9764C91.4389 11.1473 91.0296 11.224 90.62 11.2ZM89.62 5.90002C89.379 6.42968 89.2659 7.00861 89.29 7.59002C89.2648 8.17153 89.3779 8.75072 89.62 9.28002C89.7152 9.47179 89.8621 9.63316 90.0441 9.74597C90.226 9.85879 90.4359 9.91856 90.65 9.91856C90.8641 9.91856 91.074 9.85879 91.2559 9.74597C91.4379 9.63316 91.5848 9.47179 91.68 9.28002C91.9221 8.75072 92.0352 8.17153 92.01 7.59002C92.0341 7.00861 91.921 6.42968 91.68 5.90002C91.5848 5.70826 91.4379 5.54689 91.2559 5.43408C91.074 5.32126 90.8641 5.26149 90.65 5.26149C90.4359 5.26149 90.226 5.32126 90.0441 5.43408C89.8621 5.54689 89.7152 5.70826 89.62 5.90002V5.90002Z" fill="#284B00"/>
<path opacity="0.29" d="M98.52 11.2C98.1036 11.2277 97.6869 11.1507 97.3078 10.976C96.9288 10.8014 96.5995 10.5346 96.35 10.2C95.835 9.42286 95.5827 8.5011 95.63 7.57C95.5955 6.65914 95.8473 5.76034 96.35 5C96.6194 4.68874 96.9527 4.43909 97.3271 4.26797C97.7015 4.09686 98.1084 4.0083 98.52 4.0083C98.9317 4.0083 99.3385 4.09686 99.713 4.26797C100.087 4.43909 100.421 4.68874 100.69 5C101.205 5.77714 101.457 6.69891 101.41 7.63C101.457 8.5611 101.205 9.48286 100.69 10.26C100.433 10.5829 100.101 10.8376 99.7227 11.0016C99.3442 11.1655 98.9311 11.2337 98.52 11.2ZM97.52 5.9C97.279 6.42966 97.166 7.00859 97.19 7.59C97.1648 8.17151 97.2779 8.75069 97.52 9.28C97.6152 9.47177 97.7621 9.63314 97.9441 9.74595C98.1261 9.85876 98.3359 9.91854 98.55 9.91854C98.7641 9.91854 98.974 9.85876 99.156 9.74595C99.3379 9.63314 99.4848 9.47177 99.58 9.28C99.8221 8.75069 99.9352 8.17151 99.91 7.59C99.9341 7.00859 99.821 6.42966 99.58 5.9C99.4848 5.70824 99.3379 5.54687 99.156 5.43405C98.974 5.32124 98.7641 5.26147 98.55 5.26147C98.3359 5.26147 98.1261 5.32124 97.9441 5.43405C97.7621 5.54687 97.6152 5.70824 97.52 5.9V5.9Z" fill="#284B00"/>
<path opacity="0.69" d="M106.42 11.2C106.004 11.2277 105.587 11.1507 105.208 10.976C104.829 10.8014 104.499 10.5346 104.25 10.2C103.735 9.42286 103.483 8.5011 103.53 7.57C103.495 6.65914 103.747 5.76034 104.25 5C104.519 4.68874 104.853 4.43909 105.227 4.26797C105.601 4.09686 106.008 4.0083 106.42 4.0083C106.832 4.0083 107.239 4.09686 107.613 4.26797C107.987 4.43909 108.321 4.68874 108.59 5C109.105 5.77714 109.357 6.69891 109.31 7.63C109.357 8.5611 109.105 9.48286 108.59 10.26C108.333 10.5829 108.001 10.8376 107.623 11.0016C107.244 11.1655 106.831 11.2337 106.42 11.2ZM105.42 5.9C105.179 6.42966 105.066 7.00859 105.09 7.59C105.065 8.17151 105.178 8.75069 105.42 9.28C105.515 9.47177 105.662 9.63314 105.844 9.74595C106.026 9.85876 106.236 9.91854 106.45 9.91854C106.664 9.91854 106.874 9.85876 107.056 9.74595C107.238 9.63314 107.385 9.47177 107.48 9.28C107.705 8.74654 107.801 8.16752 107.76 7.59C107.784 7.00859 107.671 6.42966 107.43 5.9C107.335 5.70824 107.188 5.54687 107.006 5.43405C106.824 5.32124 106.614 5.26147 106.4 5.26147C106.186 5.26147 105.976 5.32124 105.794 5.43405C105.612 5.54687 105.465 5.70824 105.37 5.9H105.42Z" fill="#284B00"/>
<path opacity="0.35" d="M114.32 11.2C113.904 11.2277 113.487 11.1507 113.108 10.976C112.729 10.8014 112.399 10.5346 112.15 10.2C111.635 9.42286 111.383 8.5011 111.43 7.57C111.395 6.65914 111.647 5.76034 112.15 5C112.419 4.68874 112.753 4.43909 113.127 4.26797C113.501 4.09686 113.908 4.0083 114.32 4.0083C114.732 4.0083 115.139 4.09686 115.513 4.26797C115.887 4.43909 116.221 4.68874 116.49 5C117.005 5.77714 117.257 6.69891 117.21 7.63C117.257 8.5611 117.005 9.48286 116.49 10.26C116.233 10.5829 115.901 10.8376 115.523 11.0016C115.144 11.1655 114.731 11.2337 114.32 11.2ZM113.32 5.9C113.079 6.42966 112.966 7.00859 112.99 7.59C112.965 8.17151 113.078 8.75069 113.32 9.28C113.415 9.47177 113.562 9.63314 113.744 9.74595C113.926 9.85876 114.136 9.91854 114.35 9.91854C114.564 9.91854 114.774 9.85876 114.956 9.74595C115.138 9.63314 115.285 9.47177 115.38 9.28C115.622 8.75069 115.735 8.17151 115.71 7.59C115.734 7.00859 115.621 6.42966 115.38 5.9C115.285 5.70824 115.138 5.54687 114.956 5.43405C114.774 5.32124 114.564 5.26147 114.35 5.26147C114.136 5.26147 113.926 5.32124 113.744 5.43405C113.562 5.54687 113.415 5.70824 113.32 5.9V5.9Z" fill="#284B00"/>
<path opacity="0.27" d="M119.08 4.13H121.91V11.13H120.41V5.46H119.08V4.13Z" fill="#284B00"/>
<path opacity="0.58" d="M124.11 4.13H126.94V11.13H125.44V5.46H124.11V4.13Z" fill="#284B00"/>
<path opacity="0.9" d="M132.28 11.2C131.864 11.2277 131.447 11.1507 131.068 10.976C130.689 10.8014 130.359 10.5346 130.11 10.2C129.595 9.42286 129.343 8.5011 129.39 7.57C129.355 6.65914 129.607 5.76034 130.11 5C130.379 4.68874 130.713 4.43909 131.087 4.26797C131.461 4.09686 131.868 4.0083 132.28 4.0083C132.692 4.0083 133.099 4.09686 133.473 4.26797C133.847 4.43909 134.181 4.68874 134.45 5C134.965 5.77714 135.217 6.69891 135.17 7.63C135.217 8.5611 134.965 9.48286 134.45 10.26C134.193 10.5829 133.861 10.8376 133.483 11.0016C133.104 11.1655 132.691 11.2337 132.28 11.2V11.2ZM131.28 5.9C131.039 6.42966 130.926 7.00859 130.95 7.59C130.925 8.17151 131.038 8.75069 131.28 9.28C131.375 9.47177 131.522 9.63314 131.704 9.74595C131.886 9.85876 132.096 9.91854 132.31 9.91854C132.524 9.91854 132.734 9.85876 132.916 9.74595C133.098 9.63314 133.245 9.47177 133.34 9.28C133.582 8.75069 133.695 8.17151 133.67 7.59C133.694 7.00859 133.581 6.42966 133.34 5.9C133.245 5.70824 133.098 5.54687 132.916 5.43405C132.734 5.32124 132.524 5.26147 132.31 5.26147C132.096 5.26147 131.886 5.32124 131.704 5.43405C131.522 5.54687 131.375 5.70824 131.28 5.9V5.9Z" fill="#284B00"/>
<path opacity="0.5" d="M137.04 4.13H139.87V11.13H138.37V5.46H137.04V4.13Z" fill="#284B00"/>
<path opacity="0.61" d="M145.21 11.2C144.794 11.2277 144.377 11.1507 143.998 10.976C143.619 10.8014 143.289 10.5346 143.04 10.2C142.525 9.42286 142.273 8.5011 142.32 7.57C142.285 6.65914 142.537 5.76034 143.04 5C143.309 4.68874 143.643 4.43909 144.017 4.26797C144.391 4.09686 144.798 4.0083 145.21 4.0083C145.622 4.0083 146.029 4.09686 146.403 4.26797C146.777 4.43909 147.111 4.68874 147.38 5C147.895 5.77714 148.147 6.69891 148.1 7.63C148.147 8.5611 147.895 9.48286 147.38 10.26C147.123 10.5829 146.791 10.8376 146.413 11.0016C146.034 11.1655 145.621 11.2337 145.21 11.2V11.2ZM144.21 5.9C143.969 6.42966 143.856 7.00859 143.88 7.59C143.855 8.17151 143.968 8.75069 144.21 9.28C144.305 9.47177 144.452 9.63314 144.634 9.74595C144.816 9.85876 145.026 9.91854 145.24 9.91854C145.454 9.91854 145.664 9.85876 145.846 9.74595C146.028 9.63314 146.175 9.47177 146.27 9.28C146.512 8.75069 146.625 8.17151 146.6 7.59C146.624 7.00859 146.511 6.42966 146.27 5.9C146.175 5.70824 146.028 5.54687 145.846 5.43405C145.664 5.32124 145.454 5.26147 145.24 5.26147C145.026 5.26147 144.816 5.32124 144.634 5.43405C144.452 5.54687 144.305 5.70824 144.21 5.9V5.9Z" fill="#284B00"/>
<path opacity="0.96" d="M153.11 11.2C152.694 11.2277 152.277 11.1507 151.898 10.976C151.519 10.8014 151.189 10.5346 150.94 10.2C150.425 9.42286 150.173 8.5011 150.22 7.57C150.185 6.65914 150.437 5.76034 150.94 5C151.209 4.68874 151.543 4.43909 151.917 4.26797C152.291 4.09686 152.698 4.0083 153.11 4.0083C153.522 4.0083 153.928 4.09686 154.303 4.26797C154.677 4.43909 155.011 4.68874 155.28 5C155.795 5.77714 156.047 6.69891 156 7.63C156.047 8.5611 155.795 9.48286 155.28 10.26C155.023 10.5829 154.691 10.8376 154.313 11.0016C153.934 11.1655 153.521 11.2337 153.11 11.2ZM152.11 5.9C151.862 6.42799 151.742 7.00699 151.76 7.59C151.735 8.17151 151.848 8.75069 152.09 9.28C152.185 9.47177 152.332 9.63314 152.514 9.74595C152.696 9.85876 152.906 9.91854 153.12 9.91854C153.334 9.91854 153.544 9.85876 153.726 9.74595C153.908 9.63314 154.055 9.47177 154.15 9.28C154.392 8.75069 154.505 8.17151 154.48 7.59C154.504 7.00859 154.391 6.42966 154.15 5.9C154.055 5.70824 153.908 5.54687 153.726 5.43405C153.544 5.32124 153.334 5.26147 153.12 5.26147C152.906 5.26147 152.696 5.32124 152.514 5.43405C152.332 5.54687 152.185 5.70824 152.09 5.9H152.11Z" fill="#284B00"/>
<path d="M157.87 4.13H160.7V11.13H159.2V5.46H157.87V4.13Z" fill="#284B00"/>
<path opacity="0.59" d="M164.896 11.1917C164.479 11.2194 164.062 11.1424 163.683 10.9677C163.304 10.7931 162.975 10.5263 162.726 10.1917C162.211 9.41456 161.958 8.4928 162.006 7.5617C161.971 6.65083 162.223 5.75204 162.726 4.9917C162.995 4.68044 163.328 4.43079 163.703 4.25967C164.077 4.08856 164.484 4 164.896 4C165.307 4 165.714 4.08856 166.089 4.25967C166.463 4.43079 166.796 4.68044 167.066 4.9917C167.581 5.76884 167.833 6.6906 167.786 7.6217C167.833 8.5528 167.581 9.47456 167.066 10.2517C166.809 10.5746 166.477 10.8293 166.098 10.9933C165.72 11.1572 165.307 11.2254 164.896 11.1917ZM163.896 5.8917C163.655 6.42136 163.542 7.00029 163.566 7.5817C163.54 8.16321 163.654 8.74239 163.896 9.2717C163.991 9.46347 164.138 9.62484 164.32 9.73765C164.502 9.85046 164.712 9.91023 164.926 9.91023C165.14 9.91023 165.35 9.85046 165.532 9.73765C165.714 9.62484 165.86 9.46347 165.956 9.2717C166.198 8.74239 166.311 8.16321 166.286 7.5817C166.31 7.00029 166.197 6.42136 165.956 5.8917C165.86 5.69994 165.714 5.53857 165.532 5.42575C165.35 5.31294 165.14 5.25317 164.926 5.25317C164.712 5.25317 164.502 5.31294 164.32 5.42575C164.138 5.53857 163.991 5.69994 163.896 5.8917V5.8917Z" fill="#284B00"/>
<path opacity="0.81" d="M170 4H172.83V11H171.33V5.33H170V4Z" fill="#284B00"/>
<path opacity="0.95" d="M175 4H177.83V11H176.33V5.33H175V4Z" fill="#284B00"/>
<path opacity="0.86" d="M2 16.13H4.83V23.13H3.33V17.46H2V16.13Z" fill="#284B00"/>
<path opacity="0.25" d="M10.17 23.2C9.75357 23.2277 9.33684 23.1507 8.9578 22.976C8.57877 22.8014 8.24949 22.5346 8 22.2C7.48498 21.4229 7.23264 20.5011 7.28 19.57C7.24545 18.6591 7.49725 17.7604 8 17C8.24949 16.6655 8.57877 16.3987 8.9578 16.224C9.33684 16.0493 9.75357 15.9723 10.17 16C10.5864 15.9723 11.0032 16.0493 11.3822 16.224C11.7612 16.3987 12.0905 16.6655 12.34 17C12.855 17.7772 13.1074 18.6989 13.06 19.63C13.1074 20.5611 12.855 21.4829 12.34 22.26C12.084 22.5836 11.7518 22.8388 11.3732 23.0028C10.9945 23.1668 10.5812 23.2346 10.17 23.2V23.2ZM9.17 17.9C8.92898 18.4297 8.81594 19.0086 8.84 19.59C8.8148 20.1715 8.9279 20.7507 9.17 21.28C9.25594 21.4727 9.39645 21.636 9.57417 21.7498C9.75188 21.8635 9.95902 21.9227 10.17 21.92C10.381 21.9227 10.5881 21.8635 10.7658 21.7498C10.9435 21.636 11.0841 21.4727 11.17 21.28C11.4121 20.7507 11.5252 20.1715 11.5 19.59C11.5335 19.011 11.4307 18.4322 11.2 17.9C11.113 17.7081 10.9723 17.5455 10.7948 17.4319C10.6173 17.3183 10.4107 17.2586 10.2 17.26C9.97925 17.2466 9.75963 17.3006 9.5703 17.4149C9.38097 17.5292 9.23089 17.6984 9.14 17.9H9.17Z" fill="#284B00"/>
<path opacity="0.48" d="M18.07 23.2C17.6536 23.2277 17.2368 23.1507 16.8578 22.976C16.4788 22.8014 16.1495 22.5346 15.9 22.2C15.385 21.4229 15.1326 20.5011 15.18 19.57C15.1454 18.6591 15.3972 17.7604 15.9 17C16.1495 16.6655 16.4788 16.3987 16.8578 16.224C17.2368 16.0493 17.6536 15.9723 18.07 16C18.4864 15.9723 18.9032 16.0493 19.2822 16.224C19.6612 16.3987 19.9905 16.6655 20.24 17C20.755 17.7772 21.0074 18.6989 20.96 19.63C21.0074 20.5611 20.755 21.4829 20.24 22.26C19.984 22.5836 19.6518 22.8388 19.2732 23.0028C18.8945 23.1668 18.4812 23.2346 18.07 23.2V23.2ZM17.07 17.9C16.8358 18.4313 16.7297 19.0102 16.76 19.59C16.7348 20.1715 16.8479 20.7507 17.09 21.28C17.1759 21.4727 17.3164 21.636 17.4942 21.7498C17.6719 21.8635 17.879 21.9227 18.09 21.92C18.301 21.9227 18.5081 21.8635 18.6858 21.7498C18.8635 21.636 19.004 21.4727 19.09 21.28C19.3321 20.7507 19.4452 20.1715 19.42 19.59C19.4441 19.0086 19.331 18.4297 19.09 17.9C18.9948 17.7083 18.8479 17.5469 18.6659 17.4341C18.484 17.3213 18.2741 17.2615 18.06 17.2615C17.8459 17.2615 17.636 17.3213 17.4541 17.4341C17.2721 17.5469 17.1252 17.7083 17.03 17.9H17.07Z" fill="#284B00"/>
<path opacity="0.82" d="M22.83 16.13H25.66V23.13H24.16V17.46H22.83V16.13Z" fill="#284B00"/>
<path opacity="0.8" d="M27.86 16.13H30.69V23.13H29.19V17.46H27.86V16.13Z" fill="#284B00"/>
<path opacity="0.35" d="M36.03 23.2C35.6136 23.2277 35.1968 23.1507 34.8178 22.976C34.4388 22.8014 34.1095 22.5346 33.86 22.2C33.345 21.4229 33.0926 20.5011 33.14 19.57C33.1055 18.6591 33.3573 17.7604 33.86 17C34.1095 16.6655 34.4388 16.3987 34.8178 16.224C35.1968 16.0493 35.6136 15.9723 36.03 16C36.4462 15.9741 36.8623 16.052 37.2411 16.2265C37.6198 16.401 37.9493 16.6668 38.2 17C38.715 17.7772 38.9674 18.6989 38.92 19.63C38.9674 20.5611 38.715 21.4829 38.2 22.26C37.9434 22.5829 37.6111 22.8376 37.2326 23.0016C36.8542 23.1655 36.4411 23.2337 36.03 23.2V23.2ZM35.03 17.9C34.789 18.4297 34.6759 19.0086 34.7 19.59C34.6748 20.1715 34.7879 20.7507 35.03 21.28C35.1252 21.4718 35.2721 21.6332 35.4541 21.746C35.636 21.8588 35.8459 21.9185 36.06 21.9185C36.2741 21.9185 36.484 21.8588 36.6659 21.746C36.8479 21.6332 36.9948 21.4718 37.09 21.28C37.3321 20.7507 37.4452 20.1715 37.42 19.59C37.4441 19.0086 37.331 18.4297 37.09 17.9C36.9948 17.7083 36.8479 17.5469 36.6659 17.4341C36.484 17.3213 36.2741 17.2615 36.06 17.2615C35.8459 17.2615 35.636 17.3213 35.4541 17.4341C35.2721 17.5469 35.1252 17.7083 35.03 17.9V17.9Z" fill="#284B00"/>
<path opacity="0.54" d="M40.76 16.13H43.59V23.13H42.09V17.46H40.76V16.13Z" fill="#284B00"/>
<path opacity="0.34" d="M45.82 16.13H48.65V23.13H47.15V17.46H45.82V16.13Z" fill="#284B00"/>
<path opacity="0.24" d="M53.99 23.2C53.5736 23.2277 53.1568 23.1507 52.7778 22.976C52.3988 22.8014 52.0695 22.5346 51.82 22.2C51.305 21.4229 51.0526 20.5011 51.1 19.57C51.0654 18.6591 51.3172 17.7603 51.82 17C52.0894 16.6887 52.4226 16.4391 52.7971 16.268C53.1715 16.0969 53.5783 16.0083 53.99 16.0083C54.4017 16.0083 54.8085 16.0969 55.1829 16.268C55.5573 16.4391 55.8906 16.6887 56.16 17C56.675 17.7771 56.9274 18.6989 56.88 19.63C56.9274 20.5611 56.675 21.4829 56.16 22.26C55.9034 22.5829 55.5711 22.8376 55.1926 23.0016C54.8141 23.1655 54.4011 23.2337 53.99 23.2V23.2ZM52.99 17.9C52.749 18.4297 52.6359 19.0086 52.66 19.59C52.6348 20.1715 52.7479 20.7507 52.99 21.28C53.0852 21.4718 53.2321 21.6331 53.4141 21.746C53.596 21.8588 53.8059 21.9185 54.02 21.9185C54.2341 21.9185 54.4439 21.8588 54.6259 21.746C54.8079 21.6331 54.9548 21.4718 55.05 21.28C55.2921 20.7507 55.4052 20.1715 55.38 19.59C55.4041 19.0086 55.291 18.4297 55.05 17.9C54.9548 17.7082 54.8079 17.5469 54.6259 17.4341C54.4439 17.3212 54.2341 17.2615 54.02 17.2615C53.8059 17.2615 53.596 17.3212 53.4141 17.4341C53.2321 17.5469 53.0852 17.7082 52.99 17.9V17.9Z" fill="#284B00"/>
<path opacity="0.62" d="M58.76 16.13H61.59V23.13H60.09V17.46H58.76V16.13Z" fill="#284B00"/>
<path opacity="0.75" d="M63.76 16.13H66.59V23.13H65.09V17.46H63.76V16.13Z" fill="#284B00"/>
<path opacity="0.45" d="M68.81 16.13H71.64V23.13H70.14V17.46H68.81V16.13Z" fill="#284B00"/>
<path opacity="0.98" d="M73.84 16.13H76.67V23.13H75.17V17.46H73.84V16.13Z" fill="#284B00"/>
<path opacity="0.65" d="M82.01 23.2C81.5936 23.2277 81.1769 23.1507 80.7978 22.976C80.4188 22.8014 80.0895 22.5346 79.84 22.2C79.325 21.4229 79.0727 20.5011 79.12 19.57C79.0855 18.6591 79.3373 17.7603 79.84 17C80.1094 16.6887 80.4427 16.4391 80.8171 16.268C81.1915 16.0969 81.5983 16.0083 82.01 16.0083C82.4217 16.0083 82.8285 16.0969 83.2029 16.268C83.5774 16.4391 83.9106 16.6887 84.18 17C84.695 17.7771 84.9474 18.6989 84.9 19.63C84.9474 20.5611 84.695 21.4829 84.18 22.26C83.9234 22.5829 83.5911 22.8376 83.2127 23.0016C82.8342 23.1655 82.4211 23.2337 82.01 23.2V23.2ZM81.01 17.9C80.769 18.4297 80.6559 19.0086 80.68 19.59C80.6548 20.1715 80.7679 20.7507 81.01 21.28C81.1052 21.4718 81.2521 21.6331 81.4341 21.746C81.616 21.8588 81.8259 21.9185 82.04 21.9185C82.2541 21.9185 82.464 21.8588 82.6459 21.746C82.8279 21.6331 82.9748 21.4718 83.07 21.28C83.3121 20.7507 83.4252 20.1715 83.4 19.59C83.4241 19.0086 83.311 18.4297 83.07 17.9C82.9748 17.7082 82.8279 17.5469 82.6459 17.4341C82.464 17.3212 82.2541 17.2615 82.04 17.2615C81.8259 17.2615 81.616 17.3212 81.4341 17.4341C81.2521 17.5469 81.1052 17.7082 81.01 17.9Z" fill="#284B00"/>
<path opacity="0.59" d="M86.76 16.13H89.59V23.13H88.09V17.46H86.76V16.13Z" fill="#284B00"/>
<path opacity="0.7" d="M91.76 16.13H94.59V23.13H93.09V17.46H91.76V16.13Z" fill="#284B00"/>
<path opacity="0.91" d="M99.97 23.2C99.5536 23.2277 99.1369 23.1507 98.7578 22.976C98.3788 22.8014 98.0495 22.5346 97.8 22.2C97.285 21.4229 97.0327 20.5011 97.08 19.57C97.0336 18.6634 97.2713 17.765 97.76 17C98.0294 16.6887 98.3627 16.4391 98.7371 16.268C99.1115 16.0969 99.5183 16.0083 99.93 16.0083C100.342 16.0083 100.749 16.0969 101.123 16.268C101.497 16.4391 101.831 16.6887 102.1 17C102.615 17.7771 102.867 18.6989 102.82 19.63C102.867 20.5611 102.615 21.4829 102.1 22.26C101.847 22.5771 101.522 22.8282 101.151 22.9919C100.78 23.1556 100.375 23.227 99.97 23.2V23.2ZM98.97 17.9C98.729 18.4297 98.6159 19.0086 98.64 19.59C98.6148 20.1715 98.7279 20.7507 98.97 21.28C99.0652 21.4718 99.2121 21.6331 99.3941 21.746C99.576 21.8588 99.7859 21.9185 100 21.9185C100.214 21.9185 100.424 21.8588 100.606 21.746C100.788 21.6331 100.935 21.4718 101.03 21.28C101.272 20.7507 101.385 20.1715 101.36 19.59C101.384 19.0086 101.271 18.4297 101.03 17.9C100.935 17.7082 100.788 17.5469 100.606 17.4341C100.424 17.3212 100.214 17.2615 100 17.2615C99.7859 17.2615 99.576 17.3212 99.3941 17.4341C99.2121 17.5469 99.0652 17.7082 98.97 17.9V17.9Z" fill="#284B00"/>
<path opacity="0.68" d="M104.76 16.13H107.56V23.13H106.06V17.46H104.76V16.13Z" fill="#284B00"/>
<path opacity="0.46" d="M109.76 16.13H112.59V23.13H111.09V17.46H109.76V16.13Z" fill="#284B00"/>
<path opacity="0.64" d="M117.93 23.2C117.514 23.2277 117.097 23.1507 116.718 22.976C116.339 22.8014 116.009 22.5346 115.76 22.2C115.245 21.4229 114.993 20.5011 115.04 19.57C115.005 18.6591 115.257 17.7603 115.76 17C116.029 16.6887 116.363 16.4391 116.737 16.268C117.111 16.0969 117.518 16.0083 117.93 16.0083C118.342 16.0083 118.749 16.0969 119.123 16.268C119.497 16.4391 119.831 16.6887 120.1 17C120.615 17.7771 120.867 18.6989 120.82 19.63C120.867 20.5611 120.615 21.4829 120.1 22.26C119.843 22.5829 119.511 22.8376 119.133 23.0016C118.754 23.1655 118.341 23.2337 117.93 23.2V23.2ZM116.93 17.9C116.689 18.4297 116.576 19.0086 116.6 19.59C116.575 20.1715 116.688 20.7507 116.93 21.28C117.025 21.4718 117.172 21.6331 117.354 21.746C117.536 21.8588 117.746 21.9185 117.96 21.9185C118.174 21.9185 118.384 21.8588 118.566 21.746C118.748 21.6331 118.895 21.4718 118.99 21.28C119.232 20.7507 119.345 20.1715 119.32 19.59C119.344 19.0086 119.231 18.4297 118.99 17.9C118.895 17.7082 118.748 17.5469 118.566 17.4341C118.384 17.3212 118.174 17.2615 117.96 17.2615C117.746 17.2615 117.536 17.3212 117.354 17.4341C117.172 17.5469 117.025 17.7082 116.93 17.9V17.9Z" fill="#284B00"/>
<path opacity="0.49" d="M122.69 16.13H125.52V23.13H124.02V17.46H122.69V16.13Z" fill="#284B00"/>
<path opacity="0.75" d="M130.86 23.2C130.444 23.2277 130.027 23.1507 129.648 22.976C129.269 22.8014 128.939 22.5346 128.69 22.2C128.175 21.4229 127.923 20.5011 127.97 19.57C127.923 18.6389 128.175 17.7171 128.69 16.94C128.959 16.6287 129.293 16.3791 129.667 16.208C130.041 16.0369 130.448 15.9483 130.86 15.9483C131.272 15.9483 131.679 16.0369 132.053 16.208C132.427 16.3791 132.761 16.6287 133.03 16.94C133.545 17.7171 133.797 18.6389 133.75 19.57C133.797 20.5011 133.545 21.4229 133.03 22.2C132.78 22.5339 132.45 22.8002 132.072 22.9748C131.693 23.1494 131.276 23.2268 130.86 23.2V23.2ZM129.86 17.9C129.619 18.4297 129.506 19.0086 129.53 19.59C129.505 20.1715 129.618 20.7507 129.86 21.28C129.955 21.4718 130.102 21.6331 130.284 21.746C130.466 21.8588 130.676 21.9185 130.89 21.9185C131.104 21.9185 131.314 21.8588 131.496 21.746C131.678 21.6331 131.825 21.4718 131.92 21.28C132.162 20.7507 132.275 20.1715 132.25 19.59C132.274 19.0086 132.161 18.4297 131.92 17.9C131.825 17.7082 131.678 17.5469 131.496 17.4341C131.314 17.3212 131.104 17.2615 130.89 17.2615C130.676 17.2615 130.466 17.3212 130.284 17.4341C130.102 17.5469 129.955 17.7082 129.86 17.9V17.9Z" fill="#284B00"/>
<path opacity="0.67" d="M135.62 16.13H138.45V23.13H136.95V17.46H135.62V16.13Z" fill="#284B00"/>
<path opacity="0.21" d="M140.65 16.13H143.48V23.13H141.98V17.46H140.65V16.13Z" fill="#284B00"/>
<path opacity="0.34" d="M148.82 23.2C148.402 23.2276 147.984 23.1506 147.603 22.976C147.223 22.8014 146.892 22.5347 146.64 22.2C146.129 21.4217 145.88 20.5 145.93 19.57C145.88 18.64 146.129 17.7184 146.64 16.94C146.91 16.6285 147.244 16.3788 147.62 16.2076C147.995 16.0364 148.403 15.9478 148.815 15.9478C149.227 15.9478 149.635 16.0364 150.01 16.2076C150.386 16.3788 150.72 16.6285 150.99 16.94C151.502 17.7184 151.75 18.64 151.7 19.57C151.75 20.5 151.502 21.4217 150.99 22.2C150.74 22.5339 150.411 22.8002 150.032 22.9748C149.653 23.1494 149.236 23.2268 148.82 23.2V23.2ZM147.82 17.9C147.575 18.4287 147.459 19.0078 147.48 19.59C147.458 20.1724 147.574 20.7517 147.82 21.28C147.906 21.4727 148.046 21.636 148.224 21.7498C148.402 21.8635 148.609 21.9227 148.82 21.92C149.03 21.9202 149.237 21.86 149.414 21.7465C149.591 21.6331 149.732 21.4712 149.82 21.28C150.062 20.7507 150.175 20.1715 150.15 19.59C150.174 19.0086 150.061 18.4297 149.82 17.9C149.731 17.7096 149.59 17.5484 149.413 17.4351C149.236 17.3218 149.03 17.2611 148.82 17.26C148.599 17.2466 148.38 17.3006 148.19 17.4149C148.001 17.5292 147.851 17.6984 147.76 17.9H147.82Z" fill="#284B00"/>
<path opacity="0.44" d="M156.76 23.2C156.342 23.2276 155.924 23.1506 155.543 22.976C155.163 22.8014 154.832 22.5347 154.58 22.2C154.069 21.4217 153.82 20.5 153.87 19.57C153.82 18.64 154.069 17.7184 154.58 16.94C154.85 16.6285 155.184 16.3788 155.56 16.2076C155.935 16.0364 156.343 15.9478 156.755 15.9478C157.167 15.9478 157.575 16.0364 157.95 16.2076C158.326 16.3788 158.66 16.6285 158.93 16.94C159.442 17.7184 159.69 18.64 159.64 19.57C159.69 20.5 159.442 21.4217 158.93 22.2C158.68 22.5339 158.351 22.8002 157.972 22.9748C157.593 23.1494 157.176 23.2268 156.76 23.2V23.2ZM155.76 17.9C155.524 18.4312 155.411 19.009 155.43 19.59C155.41 20.1712 155.522 20.7493 155.76 21.28C155.857 21.4714 156.005 21.6321 156.188 21.7444C156.37 21.8568 156.581 21.9162 156.795 21.9162C157.009 21.9162 157.22 21.8568 157.402 21.7444C157.585 21.6321 157.733 21.4714 157.83 21.28C158.072 20.7507 158.185 20.1715 158.16 19.59C158.162 19.003 158.025 18.4238 157.76 17.9C157.663 17.7087 157.515 17.5479 157.332 17.4356C157.15 17.3233 156.939 17.2638 156.725 17.2638C156.511 17.2638 156.3 17.3233 156.118 17.4356C155.935 17.5479 155.787 17.7087 155.69 17.9H155.76Z" fill="#284B00"/>
<path opacity="0.6" d="M161.47 16.13H164.31V23.13H162.81V17.46H161.47V16.13Z" fill="#284B00"/>
<path opacity="0.72" d="M169.64 23.2C169.224 23.2268 168.807 23.1494 168.428 22.9748C168.05 22.8002 167.72 22.5339 167.47 22.2C166.955 21.4229 166.703 20.5011 166.75 19.57C166.703 18.6389 166.955 17.7171 167.47 16.94C167.739 16.6287 168.073 16.3791 168.447 16.208C168.821 16.0369 169.228 15.9483 169.64 15.9483C170.052 15.9483 170.459 16.0369 170.833 16.208C171.207 16.3791 171.541 16.6287 171.81 16.94C172.325 17.7171 172.577 18.6389 172.53 19.57C172.577 20.5011 172.325 21.4229 171.81 22.2C171.561 22.5346 171.231 22.8014 170.852 22.976C170.473 23.1507 170.056 23.2277 169.64 23.2V23.2ZM168.64 17.9C168.399 18.4297 168.286 19.0086 168.31 19.59C168.285 20.1715 168.398 20.7507 168.64 21.28C168.735 21.4718 168.882 21.6331 169.064 21.746C169.246 21.8588 169.456 21.9185 169.67 21.9185C169.884 21.9185 170.094 21.8588 170.276 21.746C170.458 21.6331 170.605 21.4718 170.7 21.28C170.942 20.7507 171.055 20.1715 171.03 19.59C171.054 19.0086 170.941 18.4297 170.7 17.9C170.605 17.7082 170.458 17.5469 170.276 17.4341C170.094 17.3212 169.884 17.2615 169.67 17.2615C169.456 17.2615 169.246 17.3212 169.064 17.4341C168.882 17.5469 168.735 17.7082 168.64 17.9V17.9Z" fill="#284B00"/>
<path opacity="0.68" d="M175 16H177.83V23H176.36V17.33H175.03L175 16Z" fill="#284B00"/>
<path opacity="0.94" d="M5.14 35.2C4.72357 35.2277 4.30684 35.1507 3.9278 34.976C3.54877 34.8014 3.21949 34.5346 2.97 34.2C2.45499 33.4229 2.20264 32.5011 2.25 31.57C2.21545 30.6591 2.46725 29.7604 2.97 29C3.21949 28.6655 3.54877 28.3987 3.9278 28.224C4.30684 28.0493 4.72357 27.9723 5.14 28C5.55643 27.9723 5.97316 28.0493 6.3522 28.224C6.73124 28.3987 7.06051 28.6655 7.31 29C7.82502 29.7772 8.07736 30.6989 8.03 31.63C8.07736 32.5611 7.82502 33.4829 7.31 34.26C7.05397 34.5836 6.72181 34.8388 6.34318 35.0028C5.96454 35.1668 5.55119 35.2346 5.14 35.2V35.2ZM4.14 29.9C3.88176 30.4255 3.75154 31.0046 3.76 31.59C3.7348 32.1715 3.8479 32.7507 4.09 33.28C4.17595 33.4727 4.31645 33.636 4.49417 33.7498C4.67188 33.8635 4.87902 33.9227 5.09 33.92C5.30098 33.9227 5.50812 33.8635 5.68583 33.7498C5.86355 33.636 6.00406 33.4727 6.09 33.28C6.3321 32.7507 6.4452 32.1715 6.42 31.59C6.44406 31.0086 6.33102 30.4297 6.09 29.9C6.00301 29.7081 5.86226 29.5455 5.68478 29.4319C5.50731 29.3183 5.30071 29.2586 5.09 29.26C4.8827 29.2625 4.68039 29.324 4.50681 29.4373C4.33323 29.5507 4.19558 29.7112 4.11 29.9H4.14Z" fill="#284B00"/>
<path opacity="0.86" d="M9.89999 28.13H12.76V35.13H11.23V29.46H9.89999V28.13Z" fill="#284B00"/>
<path opacity="0.6" d="M14.93 28.13H17.76V35.13H16.26V29.46H14.93V28.13Z" fill="#284B00"/>
<path opacity="0.42" d="M23.1 35.2C22.6836 35.2277 22.2668 35.1507 21.8878 34.976C21.5088 34.8014 21.1795 34.5346 20.93 34.2C20.415 33.4229 20.1626 32.5011 20.21 31.57C20.1755 30.6591 20.4273 29.7604 20.93 29C21.1795 28.6655 21.5088 28.3987 21.8878 28.224C22.2668 28.0493 22.6836 27.9723 23.1 28C23.5164 27.9723 23.9332 28.0493 24.3122 28.224C24.6912 28.3987 25.0205 28.6655 25.27 29C25.785 29.7772 26.0374 30.6989 25.99 31.63C26.0374 32.5611 25.785 33.4829 25.27 34.26C25.014 34.5836 24.6818 34.8388 24.3032 35.0028C23.9245 35.1668 23.5112 35.2346 23.1 35.2ZM22.1 29.9C21.8556 30.4288 21.7391 31.0078 21.76 31.59C21.7348 32.1715 21.8479 32.7507 22.09 33.28C22.1852 33.4718 22.3321 33.6332 22.5141 33.746C22.696 33.8588 22.9059 33.9185 23.12 33.9185C23.3341 33.9185 23.544 33.8588 23.7259 33.746C23.9079 33.6332 24.0548 33.4718 24.15 33.28C24.3921 32.7507 24.5052 32.1715 24.48 31.59C24.5041 31.0086 24.391 30.4297 24.15 29.9C24.0548 29.7083 23.9079 29.5469 23.7259 29.4341C23.544 29.3213 23.3341 29.2615 23.12 29.2615C22.9059 29.2615 22.696 29.3213 22.5141 29.4341C22.3321 29.5469 22.1852 29.7083 22.09 29.9H22.1Z" fill="#284B00"/>
<path opacity="0.85" d="M27.86 28.13H30.69V35.13H29.19V29.46H27.86V28.13Z" fill="#284B00"/>
<path opacity="0.9" d="M32.89 28.13H35.76V35.13H34.26V29.46H32.89V28.13Z" fill="#284B00"/>
<path opacity="0.55" d="M37.92 28.13H40.76V35.13H39.26V29.46H37.92V28.13Z" fill="#284B00"/>
<path opacity="0.34" d="M42.95 28.13H45.76V35.13H44.26V29.46H42.95V28.13Z" fill="#284B00"/>
<path opacity="0.23" d="M51.12 35.2C50.7036 35.2277 50.2868 35.1507 49.9078 34.976C49.5288 34.8014 49.1995 34.5346 48.95 34.2C48.435 33.4229 48.1826 32.5011 48.23 31.57C48.1954 30.6591 48.4472 29.7603 48.95 29C49.2194 28.6887 49.5526 28.4391 49.9271 28.268C50.3015 28.0969 50.7083 28.0083 51.12 28.0083C51.5317 28.0083 51.9385 28.0969 52.3129 28.268C52.6874 28.4391 53.0206 28.6887 53.29 29C53.805 29.7771 54.0574 30.6989 54.01 31.63C54.0574 32.5611 53.805 33.4829 53.29 34.26C53.0334 34.5829 52.7011 34.8376 52.3226 35.0016C51.9441 35.1655 51.5311 35.2337 51.12 35.2ZM50.12 29.9C49.8687 30.4272 49.7453 31.0062 49.76 31.59C49.7348 32.1715 49.8479 32.7507 50.09 33.28C50.1852 33.4718 50.3321 33.6331 50.5141 33.746C50.696 33.8588 50.9059 33.9185 51.12 33.9185C51.3341 33.9185 51.544 33.8588 51.7259 33.746C51.9079 33.6331 52.0548 33.4718 52.15 33.28C52.3921 32.7507 52.5052 32.1715 52.48 31.59C52.5041 31.0086 52.391 30.4297 52.15 29.9C52.0548 29.7082 51.9079 29.5469 51.7259 29.4341C51.544 29.3212 51.3341 29.2615 51.12 29.2615C50.9059 29.2615 50.696 29.3212 50.5141 29.4341C50.3321 29.5469 50.1852 29.7082 50.09 29.9H50.12Z" fill="#284B00"/>
<path opacity="0.32" d="M55.88 28.13H58.76V35.13H57.26V29.46H55.88V28.13Z" fill="#284B00"/>
<path opacity="0.29" d="M60.91 28.13H63.76V35.13H62.26V29.46H60.91V28.13Z" fill="#284B00"/>
<path opacity="0.79" d="M69.08 35.2C68.6636 35.2277 68.2469 35.1507 67.8678 34.976C67.4888 34.8014 67.1595 34.5346 66.91 34.2C66.395 33.4229 66.1427 32.5011 66.19 31.57C66.1555 30.6591 66.4073 29.7603 66.91 29C67.1794 28.6887 67.5127 28.4391 67.8871 28.268C68.2615 28.0969 68.6684 28.0083 69.08 28.0083C69.4917 28.0083 69.8985 28.0969 70.273 28.268C70.6474 28.4391 70.9806 28.6887 71.25 29C71.765 29.7771 72.0174 30.6989 71.97 31.63C72.0174 32.5611 71.765 33.4829 71.25 34.26C70.9934 34.5829 70.6611 34.8376 70.2827 35.0016C69.9042 35.1655 69.4911 35.2337 69.08 35.2ZM68.08 29.9C67.8424 30.4305 67.7328 31.0094 67.76 31.59C67.7348 32.1715 67.8479 32.7507 68.09 33.28C68.1852 33.4718 68.3321 33.6331 68.5141 33.746C68.6961 33.8588 68.9059 33.9185 69.12 33.9185C69.3341 33.9185 69.544 33.8588 69.726 33.746C69.9079 33.6331 70.0548 33.4718 70.15 33.28C70.3921 32.7507 70.5052 32.1715 70.48 31.59C70.5041 31.0086 70.391 30.4297 70.15 29.9C70.0548 29.7082 69.9079 29.5469 69.726 29.4341C69.544 29.3212 69.3341 29.2615 69.12 29.2615C68.9059 29.2615 68.6961 29.3212 68.5141 29.4341C68.3321 29.5469 68.1852 29.7082 68.09 29.9H68.08Z" fill="#284B00"/>
<path opacity="0.64" d="M73.84 28.13H76.67V35.13H75.17V29.46H73.84V28.13Z" fill="#284B00"/>
<path opacity="0.46" d="M78.87 28.13H81.7V35.13H80.2V29.46H78.87V28.13Z" fill="#284B00"/>
<path opacity="0.87" d="M87.04 35.2C86.6236 35.2277 86.2068 35.1507 85.8278 34.976C85.4488 34.8014 85.1195 34.5346 84.87 34.2C84.355 33.4229 84.1026 32.5011 84.15 31.57C84.1155 30.6591 84.3673 29.7603 84.87 29C85.1394 28.6887 85.4727 28.4391 85.8471 28.268C86.2215 28.0969 86.6283 28.0083 87.04 28.0083C87.4517 28.0083 87.8585 28.0969 88.2329 28.268C88.6074 28.4391 88.9406 28.6887 89.21 29C89.725 29.7771 89.9774 30.6989 89.93 31.63C89.9774 32.5611 89.725 33.4829 89.21 34.26C88.9534 34.5829 88.6211 34.8376 88.2427 35.0016C87.8642 35.1655 87.4511 35.2337 87.04 35.2V35.2ZM86.04 29.9C85.799 30.4297 85.6859 31.0086 85.71 31.59C85.6848 32.1715 85.7979 32.7507 86.04 33.28C86.1352 33.4718 86.2821 33.6331 86.4641 33.746C86.646 33.8588 86.8559 33.9185 87.07 33.9185C87.2841 33.9185 87.494 33.8588 87.6759 33.746C87.8579 33.6331 88.0048 33.4718 88.1 33.28C88.3421 32.7507 88.4552 32.1715 88.43 31.59C88.4541 31.0086 88.341 30.4297 88.1 29.9C88.0048 29.7082 87.8579 29.5469 87.6759 29.4341C87.494 29.3212 87.2841 29.2615 87.07 29.2615C86.8559 29.2615 86.646 29.3212 86.4641 29.4341C86.2821 29.5469 86.1352 29.7082 86.04 29.9V29.9Z" fill="#284B00"/>
<path opacity="0.42" d="M91.76 28.13H94.59V35.13H93.09V29.46H91.76V28.13Z" fill="#284B00"/>
<path opacity="0.75" d="M99.97 35.2C99.5536 35.2277 99.1369 35.1507 98.7578 34.976C98.3788 34.8014 98.0495 34.5346 97.8 34.2C97.285 33.4229 97.0327 32.5011 97.08 31.57C97.0336 30.6634 97.2713 29.765 97.76 29C98.0294 28.6887 98.3627 28.4391 98.7371 28.268C99.1115 28.0969 99.5183 28.0083 99.93 28.0083C100.342 28.0083 100.749 28.0969 101.123 28.268C101.497 28.4391 101.831 28.6887 102.1 29C102.615 29.7771 102.867 30.6989 102.82 31.63C102.867 32.5611 102.615 33.4829 102.1 34.26C101.847 34.5771 101.522 34.8282 101.151 34.9919C100.78 35.1556 100.375 35.227 99.97 35.2V35.2ZM98.97 29.9C98.729 30.4297 98.6159 31.0086 98.64 31.59C98.6148 32.1715 98.7279 32.7507 98.97 33.28C99.0652 33.4718 99.2121 33.6331 99.3941 33.746C99.576 33.8588 99.7859 33.9185 100 33.9185C100.214 33.9185 100.424 33.8588 100.606 33.746C100.788 33.6331 100.935 33.4718 101.03 33.28C101.272 32.7507 101.385 32.1715 101.36 31.59C101.384 31.0086 101.271 30.4297 101.03 29.9C100.935 29.7082 100.788 29.5469 100.606 29.4341C100.424 29.3212 100.214 29.2615 100 29.2615C99.7859 29.2615 99.576 29.3212 99.3941 29.4341C99.2121 29.5469 99.0652 29.7082 98.97 29.9V29.9Z" fill="#284B00"/>
<path opacity="0.78" d="M107.87 35.2C107.454 35.2277 107.037 35.1507 106.658 34.976C106.279 34.8014 105.949 34.5346 105.7 34.2C105.185 33.4229 104.933 32.5011 104.98 31.57C104.945 30.6591 105.197 29.7603 105.7 29C105.969 28.6887 106.303 28.4391 106.677 28.268C107.051 28.0969 107.458 28.0083 107.87 28.0083C108.282 28.0083 108.689 28.0969 109.063 28.268C109.437 28.4391 109.771 28.6887 110.04 29C110.555 29.7771 110.807 30.6989 110.76 31.63C110.807 32.5611 110.555 33.4829 110.04 34.26C109.783 34.5829 109.451 34.8376 109.073 35.0016C108.694 35.1655 108.281 35.2337 107.87 35.2V35.2ZM106.87 29.9C106.629 30.4297 106.516 31.0086 106.54 31.59C106.515 32.1715 106.628 32.7507 106.87 33.28C106.965 33.4718 107.112 33.6331 107.294 33.746C107.476 33.8588 107.686 33.9185 107.9 33.9185C108.114 33.9185 108.324 33.8588 108.506 33.746C108.688 33.6331 108.835 33.4718 108.93 33.28C109.172 32.7507 109.285 32.1715 109.26 31.59C109.284 31.0086 109.171 30.4297 108.93 29.9C108.835 29.7082 108.688 29.5469 108.506 29.4341C108.324 29.3212 108.114 29.2615 107.9 29.2615C107.686 29.2615 107.476 29.3212 107.294 29.4341C107.112 29.5469 106.965 29.7082 106.87 29.9V29.9Z" fill="#284B00"/>
<path opacity="0.76" d="M112.63 28.13H115.46V35.13H113.96V29.46H112.63V28.13Z" fill="#284B00"/>
<path opacity="0.35" d="M120.76 35.2C120.344 35.2277 119.927 35.1507 119.548 34.976C119.169 34.8014 118.84 34.5346 118.59 34.2C118.075 33.4229 117.823 32.5011 117.87 31.57C117.823 30.6389 118.075 29.7171 118.59 28.94C118.859 28.6287 119.193 28.3791 119.567 28.208C119.941 28.0369 120.348 27.9483 120.76 27.9483C121.172 27.9483 121.579 28.0369 121.953 28.208C122.327 28.3791 122.661 28.6287 122.93 28.94C123.445 29.7171 123.697 30.6389 123.65 31.57C123.697 32.5011 123.445 33.4229 122.93 34.2C122.68 34.5339 122.351 34.8002 121.972 34.9748C121.593 35.1494 121.176 35.2268 120.76 35.2V35.2ZM119.76 29.9C119.519 30.4297 119.406 31.0086 119.43 31.59C119.405 32.1715 119.518 32.7507 119.76 33.28C119.855 33.4718 120.002 33.6331 120.184 33.746C120.366 33.8588 120.576 33.9185 120.79 33.9185C121.004 33.9185 121.214 33.8588 121.396 33.746C121.578 33.6331 121.725 33.4718 121.82 33.28C122.062 32.7507 122.175 32.1715 122.15 31.59C122.174 31.0086 122.061 30.4297 121.82 29.9C121.725 29.7082 121.578 29.5469 121.396 29.4341C121.214 29.3212 121.004 29.2615 120.79 29.2615C120.576 29.2615 120.366 29.3212 120.184 29.4341C120.002 29.5469 119.855 29.7082 119.76 29.9V29.9Z" fill="#284B00"/>
<path opacity="0.39" d="M128.7 35.2C128.284 35.2277 127.867 35.1507 127.488 34.976C127.109 34.8014 126.779 34.5346 126.53 34.2C126.015 33.4229 125.763 32.5011 125.81 31.57C125.763 30.6389 126.015 29.7171 126.53 28.94C126.799 28.6287 127.133 28.3791 127.507 28.208C127.881 28.0369 128.288 27.9483 128.7 27.9483C129.112 27.9483 129.519 28.0369 129.893 28.208C130.267 28.3791 130.601 28.6287 130.87 28.94C131.385 29.7171 131.637 30.6389 131.59 31.57C131.637 32.5011 131.385 33.4229 130.87 34.2C130.62 34.5339 130.291 34.8002 129.912 34.9748C129.533 35.1494 129.116 35.2268 128.7 35.2V35.2ZM127.7 29.9C127.459 30.4297 127.346 31.0086 127.37 31.59C127.345 32.1715 127.458 32.7507 127.7 33.28C127.795 33.4718 127.942 33.6331 128.124 33.746C128.306 33.8588 128.516 33.9185 128.73 33.9185C128.944 33.9185 129.154 33.8588 129.336 33.746C129.518 33.6331 129.665 33.4718 129.76 33.28C130.002 32.7507 130.115 32.1715 130.09 31.59C130.114 31.0086 130.001 30.4297 129.76 29.9C129.665 29.7082 129.518 29.5469 129.336 29.4341C129.154 29.3212 128.944 29.2615 128.73 29.2615C128.516 29.2615 128.306 29.3212 128.124 29.4341C127.942 29.5469 127.795 29.7082 127.7 29.9V29.9Z" fill="#284B00"/>
<path opacity="0.86" d="M136.6 35.2C136.184 35.2277 135.767 35.1507 135.388 34.976C135.009 34.8014 134.679 34.5346 134.43 34.2C133.915 33.4229 133.663 32.5011 133.71 31.57C133.663 30.6389 133.915 29.7171 134.43 28.94C134.704 28.6341 135.04 28.3905 135.416 28.2256C135.791 28.0606 136.198 27.9782 136.609 27.9839C137.019 27.9896 137.423 28.0832 137.795 28.2585C138.166 28.4338 138.495 28.6867 138.76 29C139.275 29.7771 139.527 30.6989 139.48 31.63C139.527 32.5611 139.275 33.4829 138.76 34.26C138.504 34.5814 138.174 34.8352 137.797 34.9991C137.421 35.163 137.009 35.232 136.6 35.2V35.2ZM135.6 29.9C135.359 30.4297 135.246 31.0086 135.27 31.59C135.245 32.1715 135.358 32.7507 135.6 33.28C135.695 33.4718 135.842 33.6331 136.024 33.746C136.206 33.8588 136.416 33.9185 136.63 33.9185C136.844 33.9185 137.054 33.8588 137.236 33.746C137.418 33.6331 137.565 33.4718 137.66 33.28C137.902 32.7507 138.015 32.1715 137.99 31.59C138.014 31.0086 137.901 30.4297 137.66 29.9C137.565 29.7082 137.418 29.5469 137.236 29.4341C137.054 29.3212 136.844 29.2615 136.63 29.2615C136.416 29.2615 136.206 29.3212 136.024 29.4341C135.842 29.5469 135.695 29.7082 135.6 29.9V29.9Z" fill="#284B00"/>
<path opacity="0.32" d="M144.5 35.2C144.084 35.2277 143.667 35.1507 143.288 34.976C142.909 34.8014 142.579 34.5346 142.33 34.2C141.815 33.4229 141.563 32.5011 141.61 31.57C141.563 30.6389 141.815 29.7171 142.33 28.94C142.599 28.6287 142.933 28.3791 143.307 28.208C143.681 28.0369 144.088 27.9483 144.5 27.9483C144.912 27.9483 145.319 28.0369 145.693 28.208C146.067 28.3791 146.401 28.6287 146.67 28.94C147.185 29.7171 147.437 30.6389 147.39 31.57C147.437 32.5011 147.185 33.4229 146.67 34.2C146.42 34.5339 146.09 34.8002 145.712 34.9748C145.333 35.1494 144.916 35.2268 144.5 35.2V35.2ZM143.5 29.9C143.259 30.4297 143.146 31.0086 143.17 31.59C143.145 32.1715 143.258 32.7507 143.5 33.28C143.595 33.4718 143.742 33.6331 143.924 33.746C144.106 33.8588 144.316 33.9185 144.53 33.9185C144.744 33.9185 144.954 33.8588 145.136 33.746C145.318 33.6331 145.465 33.4718 145.56 33.28C145.802 32.7507 145.915 32.1715 145.89 31.59C145.914 31.0086 145.801 30.4297 145.56 29.9C145.465 29.7082 145.318 29.5469 145.136 29.4341C144.954 29.3212 144.744 29.2615 144.53 29.2615C144.316 29.2615 144.106 29.3212 143.924 29.4341C143.742 29.5469 143.595 29.7082 143.5 29.9V29.9Z" fill="#284B00"/>
<path opacity="0.63" d="M152.4 35.2C151.984 35.2277 151.567 35.1507 151.188 34.976C150.809 34.8014 150.479 34.5346 150.23 34.2C149.715 33.4229 149.463 32.5011 149.51 31.57C149.463 30.6389 149.715 29.7171 150.23 28.94C150.499 28.6287 150.833 28.3791 151.207 28.208C151.581 28.0369 151.988 27.9483 152.4 27.9483C152.812 27.9483 153.219 28.0369 153.593 28.208C153.967 28.3791 154.301 28.6287 154.57 28.94C155.085 29.7171 155.337 30.6389 155.29 31.57C155.337 32.5011 155.085 33.4229 154.57 34.2C154.32 34.5339 153.99 34.8002 153.612 34.9748C153.233 35.1494 152.816 35.2268 152.4 35.2V35.2ZM151.4 29.9C151.159 30.4297 151.046 31.0086 151.07 31.59C151.045 32.1715 151.158 32.7507 151.4 33.28C151.495 33.4718 151.642 33.6331 151.824 33.746C152.006 33.8588 152.216 33.9185 152.43 33.9185C152.644 33.9185 152.854 33.8588 153.036 33.746C153.218 33.6331 153.365 33.4718 153.46 33.28C153.702 32.7507 153.815 32.1715 153.79 31.59C153.814 31.0086 153.701 30.4297 153.46 29.9C153.365 29.7082 153.218 29.5469 153.036 29.4341C152.854 29.3212 152.644 29.2615 152.43 29.2615C152.216 29.2615 152.006 29.3212 151.824 29.4341C151.642 29.5469 151.495 29.7082 151.4 29.9Z" fill="#284B00"/>
<path opacity="0.89" d="M160.3 35.2C159.884 35.2277 159.467 35.1507 159.088 34.976C158.709 34.8014 158.379 34.5346 158.13 34.2C157.615 33.4229 157.363 32.5011 157.41 31.57C157.363 30.6389 157.615 29.7171 158.13 28.94C158.399 28.6287 158.733 28.3791 159.107 28.208C159.481 28.0369 159.888 27.9483 160.3 27.9483C160.712 27.9483 161.119 28.0369 161.493 28.208C161.867 28.3791 162.201 28.6287 162.47 28.94C162.985 29.7171 163.237 30.6389 163.19 31.57C163.237 32.5011 162.985 33.4229 162.47 34.2C162.22 34.5339 161.89 34.8002 161.512 34.9748C161.133 35.1494 160.716 35.2268 160.3 35.2ZM159.3 29.9C159.059 30.4297 158.946 31.0086 158.97 31.59C158.945 32.1715 159.058 32.7507 159.3 33.28C159.395 33.4718 159.542 33.6331 159.724 33.746C159.906 33.8588 160.116 33.9185 160.33 33.9185C160.544 33.9185 160.754 33.8588 160.936 33.746C161.118 33.6331 161.265 33.4718 161.36 33.28C161.602 32.7507 161.715 32.1715 161.69 31.59C161.714 31.0086 161.601 30.4297 161.36 29.9C161.265 29.7082 161.118 29.5469 160.936 29.4341C160.754 29.3212 160.544 29.2615 160.33 29.2615C160.116 29.2615 159.906 29.3212 159.724 29.4341C159.542 29.5469 159.395 29.7082 159.3 29.9V29.9Z" fill="#284B00"/>
<path opacity="0.95" d="M165.06 28.13H167.89V35.13H166.39V29.46H165.06V28.13Z" fill="#284B00"/>
<path opacity="0.45" d="M170.09 28.13H172.92V35.13H171.42V29.46H170.09V28.13Z" fill="#284B00"/>
<path opacity="0.49" d="M175.12 28.13H177.95V35.13H176.45V29.46H175.12V28.13Z" fill="#284B00"/>
<path opacity="0.42" d="M5.14 47.2C4.72357 47.2277 4.30684 47.1507 3.9278 46.976C3.54877 46.8014 3.21949 46.5346 2.97 46.2C2.45499 45.4229 2.20264 44.5011 2.25 43.57C2.21545 42.6591 2.46725 41.7604 2.97 41C3.21949 40.6655 3.54877 40.3987 3.9278 40.224C4.30684 40.0493 4.72357 39.9723 5.14 40C5.55643 39.9723 5.97316 40.0493 6.3522 40.224C6.73124 40.3987 7.06051 40.6655 7.31 41C7.82502 41.7772 8.07736 42.6989 8.03 43.63C8.07736 44.5611 7.82502 45.4829 7.31 46.26C7.05397 46.5836 6.72181 46.8388 6.34318 47.0028C5.96454 47.1668 5.55119 47.2346 5.14 47.2ZM4.14 41.9C3.88176 42.4255 3.75154 43.0046 3.76 43.59C3.7348 44.1715 3.8479 44.7507 4.09 45.28C4.17595 45.4727 4.31645 45.636 4.49417 45.7498C4.67188 45.8635 4.87902 45.9227 5.09 45.92C5.30098 45.9227 5.50812 45.8635 5.68583 45.7498C5.86355 45.636 6.00406 45.4727 6.09 45.28C6.3321 44.7507 6.4452 44.1715 6.42 43.59C6.44406 43.0086 6.33102 42.4297 6.09 41.9C6.00301 41.7081 5.86226 41.5455 5.68478 41.4319C5.50731 41.3183 5.30071 41.2586 5.09 41.26C4.8827 41.2625 4.68039 41.324 4.50681 41.4373C4.33323 41.5507 4.19558 41.7112 4.11 41.9H4.14Z" fill="#284B00"/>
<path opacity="0.88" d="M9.89999 40.13H12.76V47.13H11.23V41.46H9.89999V40.13Z" fill="#284B00"/>
<path opacity="0.29" d="M14.93 40.13H17.76V47.13H16.26V41.46H14.93V40.13Z" fill="#284B00"/>
<path opacity="0.23" d="M19.96 40.13H22.76V47.13H21.26V41.46H19.96V40.13Z" fill="#284B00"/>
<path opacity="0.22" d="M28.13 47.2C27.7136 47.2277 27.2968 47.1507 26.9178 46.976C26.5388 46.8014 26.2095 46.5346 25.96 46.2C25.445 45.4229 25.1926 44.5011 25.24 43.57C25.2055 42.6591 25.4573 41.7604 25.96 41C26.2095 40.6655 26.5388 40.3987 26.9178 40.224C27.2968 40.0493 27.7136 39.9723 28.13 40C28.5464 39.9723 28.9632 40.0493 29.3422 40.224C29.7212 40.3987 30.0505 40.6655 30.3 41C30.815 41.7772 31.0674 42.6989 31.02 43.63C31.0674 44.5611 30.815 45.4829 30.3 46.26C30.044 46.5836 29.7118 46.8388 29.3332 47.0028C28.9545 47.1668 28.5412 47.2346 28.13 47.2V47.2ZM27.13 41.9C26.6898 42.9837 26.6898 44.1964 27.13 45.28C27.2252 45.4718 27.3721 45.6332 27.5541 45.746C27.736 45.8588 27.9459 45.9186 28.16 45.9186C28.3741 45.9186 28.584 45.8588 28.7659 45.746C28.9479 45.6332 29.0948 45.4718 29.19 45.28C29.6303 44.1964 29.6303 42.9837 29.19 41.9C29.0948 41.7083 28.9479 41.5469 28.7659 41.4341C28.584 41.3213 28.3741 41.2615 28.16 41.2615C27.9459 41.2615 27.736 41.3213 27.5541 41.4341C27.3721 41.5469 27.2252 41.7083 27.13 41.9V41.9Z" fill="#284B00"/>
<path opacity="0.98" d="M32.89 40.13H35.76V47.13H34.26V41.46H32.89V40.13Z" fill="#284B00"/>
<path opacity="0.21" d="M37.92 40.13H40.76V47.13H39.26V41.46H37.92V40.13Z" fill="#284B00"/>
<path opacity="0.8" d="M46.09 47.2C45.6736 47.2277 45.2568 47.1507 44.8778 46.976C44.4988 46.8014 44.1695 46.5346 43.92 46.2C43.405 45.4229 43.1526 44.5011 43.2 43.57C43.1654 42.6591 43.4173 41.7603 43.92 41C44.1894 40.6887 44.5226 40.4391 44.8971 40.268C45.2715 40.0969 45.6783 40.0083 46.09 40.0083C46.5017 40.0083 46.9085 40.0969 47.2829 40.268C47.6574 40.4391 47.9906 40.6887 48.26 41C48.775 41.7771 49.0274 42.6989 48.98 43.63C49.0274 44.5611 48.775 45.4829 48.26 46.26C48.0034 46.5829 47.6711 46.8376 47.2926 47.0016C46.9142 47.1655 46.5011 47.2337 46.09 47.2V47.2ZM45.09 41.9C44.6497 42.9837 44.6497 44.1963 45.09 45.28C45.1852 45.4718 45.3321 45.6331 45.5141 45.746C45.696 45.8588 45.9059 45.9185 46.12 45.9185C46.3341 45.9185 46.544 45.8588 46.7259 45.746C46.9079 45.6331 47.0548 45.4718 47.15 45.28C47.5903 44.1963 47.5903 42.9837 47.15 41.9C47.0548 41.7082 46.9079 41.5469 46.7259 41.4341C46.544 41.3212 46.3341 41.2615 46.12 41.2615C45.9059 41.2615 45.696 41.3212 45.5141 41.4341C45.3321 41.5469 45.1852 41.7082 45.09 41.9Z" fill="#284B00"/>
<path opacity="0.84" d="M50.85 40.13H53.68V47.13H52.18V41.46H50.85V40.13Z" fill="#284B00"/>
<path opacity="0.74" d="M55.88 40.13H58.76V47.13H57.26V41.46H55.88V40.13Z" fill="#284B00"/>
<path opacity="0.79" d="M60.91 40.13H63.76V47.13H62.26V41.46H60.91V40.13Z" fill="#284B00"/>
<path opacity="0.24" d="M65.94 40.13H68.76V47.13H67.26V41.46H65.94V40.13Z" fill="#284B00"/>
<path opacity="0.76" d="M74.11 47.2C73.6936 47.2277 73.2768 47.1507 72.8978 46.976C72.5188 46.8014 72.1895 46.5346 71.94 46.2C71.425 45.4229 71.1726 44.5011 71.22 43.57C71.1854 42.6591 71.4372 41.7603 71.94 41C72.2094 40.6887 72.5426 40.4391 72.9171 40.268C73.2915 40.0969 73.6983 40.0083 74.11 40.0083C74.5217 40.0083 74.9285 40.0969 75.3029 40.268C75.6773 40.4391 76.0106 40.6887 76.28 41C76.795 41.7771 77.0473 42.6989 77 43.63C77.0473 44.5611 76.795 45.4829 76.28 46.26C76.0234 46.5829 75.6911 46.8376 75.3126 47.0016C74.9341 47.1655 74.5211 47.2337 74.11 47.2V47.2ZM73.11 41.9C72.6697 42.9837 72.6697 44.1963 73.11 45.28C73.2052 45.4718 73.3521 45.6331 73.5341 45.746C73.716 45.8588 73.9259 45.9185 74.14 45.9185C74.3541 45.9185 74.5639 45.8588 74.7459 45.746C74.9279 45.6331 75.0748 45.4718 75.17 45.28C75.6102 44.1963 75.6102 42.9837 75.17 41.9C75.0748 41.7082 74.9279 41.5469 74.7459 41.4341C74.5639 41.3212 74.3541 41.2615 74.14 41.2615C73.9259 41.2615 73.716 41.3212 73.5341 41.4341C73.3521 41.5469 73.2052 41.7082 73.11 41.9V41.9Z" fill="#284B00"/>
<path opacity="0.26" d="M78.87 40.13H81.7V47.13H80.2V41.46H78.87V40.13Z" fill="#284B00"/>
<path opacity="0.47" d="M83.9 40.13H86.76V47.13H85.26V41.46H83.9V40.13Z" fill="#284B00"/>
<path opacity="0.27" d="M92.07 47.2C91.6536 47.2277 91.2368 47.1507 90.8578 46.976C90.4788 46.8014 90.1495 46.5346 89.9 46.2C89.385 45.4229 89.1326 44.5011 89.18 43.57C89.1455 42.6591 89.3973 41.7603 89.9 41C90.1694 40.6887 90.5027 40.4391 90.8771 40.268C91.2515 40.0969 91.6583 40.0083 92.07 40.0083C92.4817 40.0083 92.8885 40.0969 93.2629 40.268C93.6374 40.4391 93.9706 40.6887 94.24 41C94.755 41.7771 95.0074 42.6989 94.96 43.63C95.0074 44.5611 94.755 45.4829 94.24 46.26C93.9834 46.5829 93.6511 46.8376 93.2727 47.0016C92.8942 47.1655 92.4811 47.2337 92.07 47.2V47.2ZM91.07 41.9C90.6298 42.9837 90.6298 44.1963 91.07 45.28C91.1652 45.4718 91.3121 45.6331 91.4941 45.746C91.6761 45.8588 91.8859 45.9185 92.1 45.9185C92.3141 45.9185 92.524 45.8588 92.7059 45.746C92.8879 45.6331 93.0348 45.4718 93.13 45.28C93.5703 44.1963 93.5703 42.9837 93.13 41.9C93.0348 41.7082 92.8879 41.5469 92.7059 41.4341C92.524 41.3212 92.3141 41.2615 92.1 41.2615C91.8859 41.2615 91.6761 41.3212 91.4941 41.4341C91.3121 41.5469 91.1652 41.7082 91.07 41.9V41.9Z" fill="#284B00"/>
<path opacity="0.86" d="M96.83 40.13H99.66V47.13H98.16V41.46H96.83V40.13Z" fill="#284B00"/>
<path opacity="0.44" d="M105 47.2C104.584 47.2277 104.167 47.1507 103.788 46.976C103.409 46.8014 103.079 46.5346 102.83 46.2C102.315 45.4229 102.063 44.5011 102.11 43.57C102.075 42.6591 102.327 41.7603 102.83 41C103.099 40.6887 103.433 40.4391 103.807 40.268C104.181 40.0969 104.588 40.0083 105 40.0083C105.412 40.0083 105.819 40.0969 106.193 40.268C106.567 40.4391 106.901 40.6887 107.17 41C107.685 41.7771 107.937 42.6989 107.89 43.63C107.937 44.5611 107.685 45.4829 107.17 46.26C106.913 46.5829 106.581 46.8376 106.203 47.0016C105.824 47.1655 105.411 47.2337 105 47.2V47.2ZM104 41.9C103.56 42.9837 103.56 44.1963 104 45.28C104.095 45.4718 104.242 45.6331 104.424 45.746C104.606 45.8588 104.816 45.9185 105.03 45.9185C105.244 45.9185 105.454 45.8588 105.636 45.746C105.818 45.6331 105.965 45.4718 106.06 45.28C106.5 44.1963 106.5 42.9837 106.06 41.9C105.965 41.7082 105.818 41.5469 105.636 41.4341C105.454 41.3212 105.244 41.2615 105.03 41.2615C104.816 41.2615 104.606 41.3212 104.424 41.4341C104.242 41.5469 104.095 41.7082 104 41.9Z" fill="#284B00"/>
<path opacity="0.41" d="M112.9 47.2C112.484 47.2277 112.067 47.1507 111.688 46.976C111.309 46.8014 110.979 46.5346 110.73 46.2C110.215 45.4229 109.963 44.5011 110.01 43.57C109.984 42.6559 110.247 41.7568 110.76 41C111.029 40.6887 111.363 40.4391 111.737 40.268C112.111 40.0969 112.518 40.0083 112.93 40.0083C113.342 40.0083 113.749 40.0969 114.123 40.268C114.497 40.4391 114.831 40.6887 115.1 41C115.615 41.7771 115.867 42.6989 115.82 43.63C115.867 44.5611 115.615 45.4829 115.1 46.26C114.84 46.5874 114.503 46.8448 114.119 47.009C113.735 47.1731 113.316 47.2388 112.9 47.2V47.2ZM111.9 41.9C111.46 42.9837 111.46 44.1963 111.9 45.28C111.995 45.4718 112.142 45.6331 112.324 45.746C112.506 45.8588 112.716 45.9185 112.93 45.9185C113.144 45.9185 113.354 45.8588 113.536 45.746C113.718 45.6331 113.865 45.4718 113.96 45.28C114.4 44.1963 114.4 42.9837 113.96 41.9C113.865 41.7082 113.718 41.5469 113.536 41.4341C113.354 41.3212 113.144 41.2615 112.93 41.2615C112.716 41.2615 112.506 41.3212 112.324 41.4341C112.142 41.5469 111.995 41.7082 111.9 41.9V41.9Z" fill="#284B00"/>
<path opacity="0.42" d="M117.66 40.13H120.49V47.13H118.99V41.46H117.66V40.13Z" fill="#284B00"/>
<path opacity="0.63" d="M125.83 47.2C125.414 47.2277 124.997 47.1507 124.618 46.976C124.239 46.8014 123.91 46.5346 123.66 46.2C123.145 45.4229 122.893 44.5011 122.94 43.57C122.905 42.6591 123.157 41.7603 123.66 41C123.929 40.6887 124.263 40.4391 124.637 40.268C125.012 40.0969 125.418 40.0083 125.83 40.0083C126.242 40.0083 126.649 40.0969 127.023 40.268C127.397 40.4391 127.731 40.6887 128 41C128.515 41.7771 128.767 42.6989 128.72 43.63C128.767 44.5611 128.515 45.4829 128 46.26C127.743 46.5829 127.411 46.8376 127.033 47.0016C126.654 47.1655 126.241 47.2337 125.83 47.2V47.2ZM124.83 41.9C124.39 42.9837 124.39 44.1963 124.83 45.28C124.925 45.4718 125.072 45.6331 125.254 45.746C125.436 45.8588 125.646 45.9185 125.86 45.9185C126.074 45.9185 126.284 45.8588 126.466 45.746C126.648 45.6331 126.795 45.4718 126.89 45.28C127.33 44.1963 127.33 42.9837 126.89 41.9C126.795 41.7082 126.648 41.5469 126.466 41.4341C126.284 41.3212 126.074 41.2615 125.86 41.2615C125.646 41.2615 125.436 41.3212 125.254 41.4341C125.072 41.5469 124.925 41.7082 124.83 41.9V41.9Z" fill="#284B00"/>
<path opacity="0.25" d="M130.59 40.13H133.42V47.13H131.92V41.46H130.59V40.13Z" fill="#284B00"/>
<path opacity="0.49" d="M135.62 40.13H138.45V47.13H136.95V41.46H135.62V40.13Z" fill="#284B00"/>
<path opacity="0.57" d="M143.76 47.2C143.344 47.2277 142.927 47.1507 142.548 46.976C142.169 46.8014 141.84 46.5346 141.59 46.2C141.075 45.4229 140.823 44.5011 140.87 43.57C140.823 42.6389 141.075 41.7171 141.59 40.94C141.859 40.6287 142.193 40.3791 142.567 40.208C142.941 40.0369 143.348 39.9483 143.76 39.9483C144.172 39.9483 144.579 40.0369 144.953 40.208C145.327 40.3791 145.661 40.6287 145.93 40.94C146.445 41.7171 146.697 42.6389 146.65 43.57C146.697 44.5011 146.445 45.4229 145.93 46.2C145.68 46.5339 145.351 46.8002 144.972 46.9748C144.593 47.1494 144.176 47.2268 143.76 47.2V47.2ZM142.76 41.9C142.32 42.9837 142.32 44.1963 142.76 45.28C142.855 45.4718 143.002 45.6331 143.184 45.746C143.366 45.8588 143.576 45.9185 143.79 45.9185C144.004 45.9185 144.214 45.8588 144.396 45.746C144.578 45.6331 144.725 45.4718 144.82 45.28C145.26 44.1963 145.26 42.9837 144.82 41.9C144.725 41.7082 144.578 41.5469 144.396 41.4341C144.214 41.3212 144.004 41.2615 143.79 41.2615C143.576 41.2615 143.366 41.3212 143.184 41.4341C143.002 41.5469 142.855 41.7082 142.76 41.9V41.9Z" fill="#284B00"/>
<path opacity="0.59" d="M148.55 40.13H151.38V47.13H149.88V41.46H148.55V40.13Z" fill="#284B00"/>
<path opacity="0.43" d="M153.58 40.13H156.41V47.13H154.91V41.46H153.58V40.13Z" fill="#284B00"/>
<path opacity="0.47" d="M159 40.13H161.83V47.13H160.33V41.46H159V40.13Z" fill="#284B00"/>
<path opacity="0.64" d="M166.896 47.2517C166.479 47.2785 166.063 47.2011 165.684 47.0265C165.305 46.8519 164.976 46.5856 164.726 46.2517C164.211 45.4746 163.958 44.5528 164.006 43.6217C163.958 42.6906 164.211 41.7688 164.726 40.9917C164.995 40.6804 165.328 40.4308 165.703 40.2597C166.077 40.0886 166.484 40 166.896 40C167.307 40 167.714 40.0886 168.089 40.2597C168.463 40.4308 168.796 40.6804 169.066 40.9917C169.581 41.7688 169.833 42.6906 169.786 43.6217C169.833 44.5528 169.581 45.4746 169.066 46.2517C168.816 46.5863 168.487 46.8531 168.108 47.0277C167.729 47.2024 167.312 47.2794 166.896 47.2517V47.2517ZM165.896 41.9517C165.455 43.0354 165.455 44.248 165.896 45.3317C165.991 45.5235 166.138 45.6848 166.32 45.7977C166.502 45.9105 166.712 45.9702 166.926 45.9702C167.14 45.9702 167.35 45.9105 167.532 45.7977C167.714 45.6848 167.86 45.5235 167.956 45.3317C168.396 44.248 168.396 43.0354 167.956 41.9517C167.86 41.7599 167.714 41.5986 167.532 41.4858C167.35 41.3729 167.14 41.3132 166.926 41.3132C166.712 41.3132 166.502 41.3729 166.32 41.4858C166.138 41.5986 165.991 41.7599 165.896 41.9517Z" fill="#284B00"/>
<path opacity="0.39" d="M174.896 47.2517C174.479 47.2785 174.063 47.2011 173.684 47.0265C173.305 46.8519 172.976 46.5856 172.726 46.2517C172.211 45.4746 171.958 44.5528 172.006 43.6217C171.958 42.6906 172.211 41.7688 172.726 40.9917C172.995 40.6804 173.328 40.4308 173.703 40.2597C174.077 40.0886 174.484 40 174.896 40C175.307 40 175.714 40.0886 176.089 40.2597C176.463 40.4308 176.796 40.6804 177.066 40.9917C177.581 41.7688 177.833 42.6906 177.786 43.6217C177.833 44.5528 177.581 45.4746 177.066 46.2517C176.816 46.5863 176.487 46.8531 176.108 47.0277C175.729 47.2024 175.312 47.2794 174.896 47.2517V47.2517ZM173.896 41.9517C173.455 43.0354 173.455 44.248 173.896 45.3317C173.991 45.5235 174.138 45.6848 174.32 45.7977C174.502 45.9105 174.712 45.9702 174.926 45.9702C175.14 45.9702 175.35 45.9105 175.532 45.7977C175.714 45.6848 175.86 45.5235 175.956 45.3317C176.396 44.248 176.396 43.0354 175.956 41.9517C175.86 41.7599 175.714 41.5986 175.532 41.4858C175.35 41.3729 175.14 41.3132 174.926 41.3132C174.712 41.3132 174.502 41.3729 174.32 41.4858C174.138 41.5986 173.991 41.7599 173.896 41.9517V41.9517Z" fill="#284B00"/>
<path opacity="0.79" d="M5.14 59.2C4.72357 59.2277 4.30684 59.1507 3.9278 58.976C3.54877 58.8014 3.21949 58.5346 2.97 58.2C2.45499 57.4229 2.20264 56.5011 2.25 55.57C2.21545 54.6591 2.46725 53.7604 2.97 53C3.21949 52.6655 3.54877 52.3987 3.9278 52.224C4.30684 52.0493 4.72357 51.9723 5.14 52C5.55643 51.9723 5.97316 52.0493 6.3522 52.224C6.73124 52.3987 7.06051 52.6655 7.31 53C7.82502 53.7772 8.07736 54.6989 8.03 55.63C8.07736 56.5611 7.82502 57.4829 7.31 58.26C7.05397 58.5836 6.72181 58.8388 6.34318 59.0028C5.96454 59.1668 5.55119 59.2346 5.14 59.2V59.2ZM4.14 53.9C3.88176 54.4255 3.75154 55.0046 3.76 55.59C3.7348 56.1715 3.8479 56.7507 4.09 57.28C4.17595 57.4727 4.31645 57.636 4.49417 57.7498C4.67188 57.8635 4.87902 57.9227 5.09 57.92C5.30098 57.9227 5.50812 57.8635 5.68583 57.7498C5.86355 57.636 6.00406 57.4727 6.09 57.28C6.3321 56.7507 6.4452 56.1715 6.42 55.59C6.44406 55.0086 6.33102 54.4297 6.09 53.9C6.00301 53.7081 5.86226 53.5455 5.68478 53.4319C5.50731 53.3183 5.30071 53.2586 5.09 53.26C4.8827 53.2625 4.68039 53.324 4.50681 53.4373C4.33323 53.5507 4.19558 53.7112 4.11 53.9H4.14Z" fill="#284B00"/>
<path opacity="0.52" d="M9.89999 52.13H12.76V59.13H11.23V53.46H9.89999V52.13Z" fill="#284B00"/>
<path d="M18.07 59.2C17.6536 59.2277 17.2368 59.1507 16.8578 58.976C16.4788 58.8014 16.1495 58.5346 15.9 58.2C15.4283 57.4038 15.1794 56.4954 15.1794 55.57C15.1794 54.6446 15.4283 53.7362 15.9 52.94C16.1495 52.6055 16.4788 52.3387 16.8578 52.164C17.2368 51.9893 17.6536 51.9123 18.07 51.94C18.4864 51.9123 18.9032 51.9893 19.2822 52.164C19.6612 52.3387 19.9905 52.6055 20.24 52.94C20.7117 53.7362 20.9605 54.6446 20.9605 55.57C20.9605 56.4954 20.7117 57.4038 20.24 58.2C19.9905 58.5346 19.6612 58.8014 19.2822 58.976C18.9032 59.1507 18.4864 59.2277 18.07 59.2V59.2ZM17.07 53.9C16.6297 54.9837 16.6297 56.1964 17.07 57.28C17.1559 57.4727 17.2964 57.636 17.4742 57.7498C17.6519 57.8635 17.859 57.9227 18.07 57.92C18.281 57.9227 18.4881 57.8635 18.6658 57.7498C18.8435 57.636 18.9841 57.4727 19.07 57.28C19.5103 56.1964 19.5103 54.9837 19.07 53.9C18.9748 53.7083 18.8279 53.5469 18.6459 53.4341C18.464 53.3213 18.2541 53.2615 18.04 53.2615C17.8259 53.2615 17.616 53.3213 17.4341 53.4341C17.2521 53.5469 17.1052 53.7083 17.01 53.9H17.07Z" fill="#284B00"/>
<path opacity="0.78" d="M25.97 59.2C25.5536 59.2277 25.1368 59.1507 24.7578 58.976C24.3788 58.8014 24.0495 58.5346 23.8 58.2C23.3336 57.4144 23.0841 56.519 23.0771 55.6054C23.07 54.6918 23.3057 53.7927 23.76 53C24.0095 52.6655 24.3388 52.3987 24.7178 52.224C25.0968 52.0493 25.5136 51.9723 25.93 52C26.3464 51.9723 26.7632 52.0493 27.1422 52.224C27.5212 52.3987 27.8505 52.6655 28.1 53C28.5717 53.7962 28.8205 54.7046 28.8205 55.63C28.8205 56.5554 28.5717 57.4638 28.1 58.26C27.8479 58.5777 27.5222 58.8293 27.1511 58.9931C26.78 59.1569 26.3747 59.2279 25.97 59.2ZM24.97 53.9C24.5297 54.9837 24.5297 56.1964 24.97 57.28C25.0652 57.4718 25.2121 57.6332 25.3941 57.746C25.576 57.8588 25.7859 57.9186 26 57.9186C26.2141 57.9186 26.424 57.8588 26.6059 57.746C26.7879 57.6332 26.9348 57.4718 27.03 57.28C27.4703 56.1964 27.4703 54.9837 27.03 53.9C26.9348 53.7083 26.7879 53.5469 26.6059 53.4341C26.424 53.3213 26.2141 53.2615 26 53.2615C25.7859 53.2615 25.576 53.3213 25.3941 53.4341C25.2121 53.5469 25.0652 53.7083 24.97 53.9Z" fill="#284B00"/>
<path opacity="0.66" d="M33.87 59.2C33.4536 59.2277 33.0368 59.1507 32.6578 58.976C32.2788 58.8014 31.9495 58.5346 31.7 58.2C31.2283 57.4038 30.9794 56.4954 30.9794 55.57C30.9794 54.6446 31.2283 53.7362 31.7 52.94C31.9495 52.6055 32.2788 52.3387 32.6578 52.164C33.0368 51.9893 33.4536 51.9123 33.87 51.94C34.2864 51.9123 34.7032 51.9893 35.0822 52.164C35.4612 52.3387 35.7905 52.6055 36.04 52.94C36.5117 53.7362 36.7605 54.6446 36.7605 55.57C36.7605 56.4954 36.5117 57.4038 36.04 58.2C35.7905 58.5346 35.4612 58.8014 35.0822 58.976C34.7032 59.1507 34.2864 59.2277 33.87 59.2V59.2ZM32.87 53.9C32.4297 54.9837 32.4297 56.1964 32.87 57.28C32.9652 57.4718 33.1121 57.6332 33.2941 57.746C33.476 57.8588 33.6859 57.9186 33.9 57.9186C34.1141 57.9186 34.324 57.8588 34.5059 57.746C34.6879 57.6332 34.8348 57.4718 34.93 57.28C35.3703 56.1964 35.3703 54.9837 34.93 53.9C34.8348 53.7083 34.6879 53.5469 34.5059 53.4341C34.324 53.3213 34.1141 53.2615 33.9 53.2615C33.6859 53.2615 33.476 53.3213 33.2941 53.4341C33.1121 53.5469 32.9652 53.7083 32.87 53.9Z" fill="#284B00"/>
<path opacity="0.55" d="M41.76 59.2C41.3436 59.2277 40.9268 59.1507 40.5478 58.976C40.1688 58.8014 39.8395 58.5346 39.59 58.2C39.1183 57.4038 38.8694 56.4954 38.8694 55.57C38.8694 54.6446 39.1183 53.7362 39.59 52.94C39.846 52.6164 40.1782 52.3612 40.5568 52.1972C40.9355 52.0332 41.3488 51.9654 41.76 52C42.1764 51.9723 42.5932 52.0493 42.9722 52.224C43.3512 52.3987 43.6805 52.6654 43.93 53C44.4017 53.7962 44.6506 54.7046 44.6506 55.63C44.6506 56.5554 44.4017 57.4638 43.93 58.26C43.674 58.5836 43.3418 58.8388 42.9632 59.0028C42.5845 59.1668 42.1712 59.2346 41.76 59.2V59.2ZM40.76 53.9C40.3197 54.9837 40.3197 56.1963 40.76 57.28C40.8552 57.4718 41.0021 57.6331 41.1841 57.7459C41.366 57.8588 41.5759 57.9185 41.79 57.9185C42.0041 57.9185 42.214 57.8588 42.3959 57.7459C42.5779 57.6331 42.7248 57.4718 42.82 57.28C43.2603 56.1963 43.2603 54.9837 42.82 53.9C42.7248 53.7082 42.5779 53.5469 42.3959 53.4341C42.214 53.3212 42.0041 53.2615 41.79 53.2615C41.5759 53.2615 41.366 53.3212 41.1841 53.4341C41.0021 53.5469 40.8552 53.7082 40.76 53.9V53.9Z" fill="#284B00"/>
<path opacity="0.27" d="M46.53 52.13H49.36V59.13H47.86V53.46H46.53V52.13Z" fill="#284B00"/>
<path opacity="0.85" d="M51.56 52.13H54.39V59.13H52.89V53.46H51.56V52.13Z" fill="#284B00"/>
<path opacity="0.41" d="M59.76 59.2C59.3436 59.2277 58.9268 59.1507 58.5478 58.976C58.1688 58.8014 57.8395 58.5346 57.59 58.2C57.1183 57.4038 56.8694 56.4954 56.8694 55.57C56.8694 54.6446 57.1183 53.7362 57.59 52.94C57.8594 52.6287 58.1926 52.3791 58.5671 52.208C58.9415 52.0369 59.3483 51.9483 59.76 51.9483C60.1717 51.9483 60.5785 52.0369 60.9529 52.208C61.3274 52.3791 61.6606 52.6287 61.93 52.94C62.4017 53.7362 62.6506 54.6446 62.6506 55.57C62.6506 56.4954 62.4017 57.4038 61.93 58.2C61.6799 58.5339 61.3505 58.8002 60.9716 58.9748C60.5927 59.1494 60.1763 59.2268 59.76 59.2V59.2ZM58.76 53.9C58.3197 54.9837 58.3197 56.1963 58.76 57.28C58.8552 57.4718 59.0021 57.6331 59.1841 57.746C59.366 57.8588 59.5759 57.9185 59.79 57.9185C60.0041 57.9185 60.214 57.8588 60.3959 57.746C60.5779 57.6331 60.7248 57.4718 60.82 57.28C61.2603 56.1963 61.2603 54.9837 60.82 53.9C60.7248 53.7082 60.5779 53.5469 60.3959 53.4341C60.214 53.3212 60.0041 53.2615 59.79 53.2615C59.5759 53.2615 59.366 53.3212 59.1841 53.4341C59.0021 53.5469 58.8552 53.7082 58.76 53.9Z" fill="#284B00"/>
<path opacity="0.92" d="M67.63 59.2C67.2136 59.2277 66.7968 59.1507 66.4178 58.976C66.0388 58.8013 65.7095 58.5346 65.46 58.2C64.9883 57.4038 64.7394 56.4954 64.7394 55.57C64.7394 54.6446 64.9883 53.7362 65.46 52.94C65.7335 52.6392 66.0679 52.3999 66.4408 52.238C66.8138 52.0761 67.217 51.9953 67.6235 52.001C68.0301 52.0067 68.4308 52.0987 68.7991 52.2709C69.1674 52.4431 69.495 52.6916 69.76 53C70.2317 53.7962 70.4805 54.7046 70.4805 55.63C70.4805 56.5554 70.2317 57.4638 69.76 58.26C69.5073 58.5771 69.1815 58.8282 68.8106 58.9919C68.4396 59.1556 68.0346 59.227 67.63 59.2V59.2ZM66.63 53.9C66.1897 54.9837 66.1897 56.1963 66.63 57.28C66.7252 57.4718 66.8721 57.6331 67.0541 57.7459C67.236 57.8588 67.4459 57.9185 67.66 57.9185C67.8741 57.9185 68.084 57.8588 68.2659 57.7459C68.4479 57.6331 68.5948 57.4718 68.69 57.28C69.1303 56.1963 69.1303 54.9837 68.69 53.9C68.5948 53.7082 68.4479 53.5469 68.2659 53.434C68.084 53.3212 67.8741 53.2615 67.66 53.2615C67.4459 53.2615 67.236 53.3212 67.0541 53.434C66.8721 53.5469 66.7252 53.7082 66.63 53.9V53.9Z" fill="#284B00"/>
<path opacity="0.7" d="M72.39 52.13H75.22V59.13H73.76V53.46H72.39V52.13Z" fill="#284B00"/>
<path opacity="0.81" d="M80.56 59.2C80.1436 59.2277 79.7268 59.1507 79.3478 58.9761C78.9687 58.8014 78.6395 58.5346 78.39 58.2C77.9183 57.4039 77.6694 56.4955 77.6694 55.57C77.6694 54.6446 77.9183 53.7362 78.39 52.94C78.6637 52.6273 79.0021 52.3778 79.3818 52.2087C79.7614 52.0396 80.1733 51.955 80.5888 51.9607C81.0044 51.9664 81.4138 52.0623 81.7886 52.2418C82.1635 52.4212 82.4949 52.6799 82.76 53C83.2317 53.7962 83.4805 54.7046 83.4805 55.63C83.4805 56.5555 83.2317 57.4638 82.76 58.26C82.5005 58.5874 82.1634 58.8449 81.7792 59.009C81.395 59.1732 80.976 59.2388 80.56 59.2V59.2ZM79.56 53.9C79.1197 54.9837 79.1197 56.1964 79.56 57.28C79.6552 57.4718 79.8021 57.6332 79.9841 57.746C80.166 57.8588 80.3759 57.9186 80.59 57.9186C80.8041 57.9186 81.0139 57.8588 81.1959 57.746C81.3779 57.6332 81.5248 57.4718 81.62 57.28C82.0602 56.1964 82.0602 54.9837 81.62 53.9C81.5248 53.7083 81.3779 53.5469 81.1959 53.4341C81.0139 53.3213 80.8041 53.2615 80.59 53.2615C80.3759 53.2615 80.166 53.3213 79.9841 53.4341C79.8021 53.5469 79.6552 53.7083 79.56 53.9V53.9Z" fill="#284B00"/>
<path opacity="0.38" d="M85.32 52.13H88.15V59.13H86.65V53.46H85.32V52.13Z" fill="#284B00"/>
<path opacity="0.5" d="M93.49 59.2C93.0736 59.2277 92.6568 59.1507 92.2778 58.976C91.8988 58.8014 91.5695 58.5346 91.32 58.2C90.8483 57.4038 90.5995 56.4954 90.5995 55.57C90.5995 54.6446 90.8483 53.7362 91.32 52.94C91.5894 52.6287 91.9227 52.3791 92.2971 52.208C92.6715 52.0369 93.0783 51.9483 93.49 51.9483C93.9017 51.9483 94.3085 52.0369 94.6829 52.208C95.0574 52.3791 95.3906 52.6287 95.66 52.94C96.1317 53.7362 96.3806 54.6446 96.3806 55.57C96.3806 56.4954 96.1317 57.4038 95.66 58.2C95.4099 58.5339 95.0805 58.8002 94.7016 58.9748C94.3227 59.1494 93.9063 59.2268 93.49 59.2V59.2ZM92.49 53.9C92.0498 54.9837 92.0498 56.1963 92.49 57.28C92.5852 57.4718 92.7321 57.6331 92.9141 57.746C93.0961 57.8588 93.3059 57.9185 93.52 57.9185C93.7341 57.9185 93.944 57.8588 94.1259 57.746C94.3079 57.6331 94.4548 57.4718 94.55 57.28C94.9903 56.1963 94.9903 54.9837 94.55 53.9C94.4548 53.7082 94.3079 53.5469 94.1259 53.4341C93.944 53.3212 93.7341 53.2615 93.52 53.2615C93.3059 53.2615 93.0961 53.3212 92.9141 53.4341C92.7321 53.5469 92.5852 53.7082 92.49 53.9V53.9Z" fill="#284B00"/>
<path opacity="0.72" d="M98.25 52.13H101.08V59.13H99.58V53.46H98.25V52.13Z" fill="#284B00"/>
<path opacity="0.91" d="M103.28 52.13H106.11V59.13H104.61V53.46H103.28V52.13Z" fill="#284B00"/>
<path opacity="0.35" d="M108.31 52.13H111.14V59.13H109.64V53.46H108.31V52.13Z" fill="#284B00"/>
<path opacity="0.25" d="M116.48 59.2C116.064 59.2277 115.647 59.1507 115.268 58.976C114.889 58.8014 114.559 58.5346 114.31 58.2C113.838 57.4038 113.589 56.4954 113.589 55.57C113.589 54.6446 113.838 53.7362 114.31 52.94C114.579 52.6287 114.913 52.3791 115.287 52.208C115.661 52.0369 116.068 51.9483 116.48 51.9483C116.892 51.9483 117.299 52.0369 117.673 52.208C118.047 52.3791 118.381 52.6287 118.65 52.94C119.122 53.7362 119.371 54.6446 119.371 55.57C119.371 56.4954 119.122 57.4038 118.65 58.2C118.4 58.5339 118.071 58.8002 117.692 58.9748C117.313 59.1494 116.896 59.2268 116.48 59.2V59.2ZM115.48 53.9C115.04 54.9837 115.04 56.1963 115.48 57.28C115.575 57.4718 115.722 57.6331 115.904 57.746C116.086 57.8588 116.296 57.9185 116.51 57.9185C116.724 57.9185 116.934 57.8588 117.116 57.746C117.298 57.6331 117.445 57.4718 117.54 57.28C117.98 56.1963 117.98 54.9837 117.54 53.9C117.445 53.7082 117.298 53.5469 117.116 53.4341C116.934 53.3212 116.724 53.2615 116.51 53.2615C116.296 53.2615 116.086 53.3212 115.904 53.4341C115.722 53.5469 115.575 53.7082 115.48 53.9V53.9Z" fill="#284B00"/>
<path opacity="0.37" d="M124.38 59.2C123.964 59.2277 123.547 59.1507 123.168 58.976C122.789 58.8014 122.459 58.5346 122.21 58.2C121.738 57.4038 121.489 56.4954 121.489 55.57C121.489 54.6446 121.738 53.7362 122.21 52.94C122.479 52.6287 122.813 52.3791 123.187 52.208C123.561 52.0369 123.968 51.9483 124.38 51.9483C124.792 51.9483 125.199 52.0369 125.573 52.208C125.947 52.3791 126.281 52.6287 126.55 52.94C127.022 53.7362 127.271 54.6446 127.271 55.57C127.271 56.4954 127.022 57.4038 126.55 58.2C126.3 58.5339 125.97 58.8002 125.592 58.9748C125.213 59.1494 124.796 59.2268 124.38 59.2V59.2ZM123.38 53.9C122.94 54.9837 122.94 56.1963 123.38 57.28C123.475 57.4718 123.622 57.6331 123.804 57.746C123.986 57.8588 124.196 57.9185 124.41 57.9185C124.624 57.9185 124.834 57.8588 125.016 57.746C125.198 57.6331 125.345 57.4718 125.44 57.28C125.88 56.1963 125.88 54.9837 125.44 53.9C125.345 53.7082 125.198 53.5469 125.016 53.4341C124.834 53.3212 124.624 53.2615 124.41 53.2615C124.196 53.2615 123.986 53.3212 123.804 53.4341C123.622 53.5469 123.475 53.7082 123.38 53.9V53.9Z" fill="#284B00"/>
<path opacity="0.77" d="M129.14 52.13H131.97V59.13H130.47V53.46H129.14V52.13Z" fill="#284B00"/>
<path opacity="0.35" d="M137.31 59.2C136.894 59.2277 136.477 59.1507 136.098 58.976C135.719 58.8014 135.389 58.5346 135.14 58.2C134.668 57.4038 134.419 56.4954 134.419 55.57C134.419 54.6446 134.668 53.7362 135.14 52.94C135.409 52.6287 135.743 52.3791 136.117 52.208C136.491 52.0369 136.898 51.9483 137.31 51.9483C137.722 51.9483 138.129 52.0369 138.503 52.208C138.877 52.3791 139.211 52.6287 139.48 52.94C139.952 53.7362 140.201 54.6446 140.201 55.57C140.201 56.4954 139.952 57.4038 139.48 58.2C139.23 58.5339 138.9 58.8002 138.522 58.9748C138.143 59.1494 137.726 59.2268 137.31 59.2V59.2ZM136.31 53.9C135.87 54.9837 135.87 56.1963 136.31 57.28C136.405 57.4718 136.552 57.6331 136.734 57.746C136.916 57.8588 137.126 57.9185 137.34 57.9185C137.554 57.9185 137.764 57.8588 137.946 57.746C138.128 57.6331 138.275 57.4718 138.37 57.28C138.81 56.1963 138.81 54.9837 138.37 53.9C138.275 53.7082 138.128 53.5469 137.946 53.4341C137.764 53.3212 137.554 53.2615 137.34 53.2615C137.126 53.2615 136.916 53.3212 136.734 53.4341C136.552 53.5469 136.405 53.7082 136.31 53.9V53.9Z" fill="#284B00"/>
<path opacity="0.53" d="M145.21 59.2C144.794 59.2277 144.377 59.1507 143.998 58.976C143.619 58.8014 143.289 58.5346 143.04 58.2C142.568 57.4038 142.319 56.4954 142.319 55.57C142.319 54.6446 142.568 53.7362 143.04 52.94C143.309 52.6287 143.643 52.3791 144.017 52.208C144.391 52.0369 144.798 51.9483 145.21 51.9483C145.622 51.9483 146.029 52.0369 146.403 52.208C146.777 52.3791 147.111 52.6287 147.38 52.94C147.852 53.7362 148.101 54.6446 148.101 55.57C148.101 56.4954 147.852 57.4038 147.38 58.2C147.13 58.5339 146.801 58.8002 146.422 58.9748C146.043 59.1494 145.626 59.2268 145.21 59.2V59.2ZM144.21 53.9C143.77 54.9837 143.77 56.1963 144.21 57.28C144.305 57.4718 144.452 57.6331 144.634 57.746C144.816 57.8588 145.026 57.9185 145.24 57.9185C145.454 57.9185 145.664 57.8588 145.846 57.746C146.028 57.6331 146.175 57.4718 146.27 57.28C146.71 56.1963 146.71 54.9837 146.27 53.9C146.175 53.7082 146.028 53.5469 145.846 53.4341C145.664 53.3212 145.454 53.2615 145.24 53.2615C145.026 53.2615 144.816 53.3212 144.634 53.4341C144.452 53.5469 144.305 53.7082 144.21 53.9V53.9Z" fill="#284B00"/>
<path opacity="0.46" d="M149.97 52.13H152.76V59.13H151.26V53.46H149.93L149.97 52.13Z" fill="#284B00"/>
<path opacity="0.23" d="M155 52.13H157.83V59.13H156.33V53.46H155V52.13Z" fill="#284B00"/>
<path opacity="0.43" d="M163.17 59.2C162.754 59.2277 162.337 59.1507 161.958 58.976C161.579 58.8014 161.249 58.5346 161 58.2C160.528 57.4038 160.279 56.4954 160.279 55.57C160.279 54.6446 160.528 53.7362 161 52.94C161.269 52.6287 161.603 52.3791 161.977 52.208C162.351 52.0369 162.758 51.9483 163.17 51.9483C163.582 51.9483 163.989 52.0369 164.363 52.208C164.737 52.3791 165.071 52.6287 165.34 52.94C165.812 53.7362 166.061 54.6446 166.061 55.57C166.061 56.4954 165.812 57.4038 165.34 58.2C165.09 58.5339 164.761 58.8002 164.382 58.9748C164.003 59.1494 163.586 59.2268 163.17 59.2V59.2ZM162.17 53.9C161.73 54.9837 161.73 56.1963 162.17 57.28C162.265 57.4718 162.412 57.6331 162.594 57.746C162.776 57.8588 162.986 57.9185 163.2 57.9185C163.414 57.9185 163.624 57.8588 163.806 57.746C163.988 57.6331 164.135 57.4718 164.23 57.28C164.67 56.1963 164.67 54.9837 164.23 53.9C164.135 53.7082 163.988 53.5469 163.806 53.4341C163.624 53.3212 163.414 53.2615 163.2 53.2615C162.986 53.2615 162.776 53.3212 162.594 53.4341C162.412 53.5469 162.265 53.7082 162.17 53.9V53.9Z" fill="#284B00"/>
<path opacity="0.8" d="M169.891 59.2517C169.474 59.2794 169.057 59.2024 168.678 59.0277C168.299 58.8531 167.97 58.5863 167.721 58.2517C167.249 57.4555 167 56.5471 167 55.6217C167 54.6963 167.249 53.7879 167.721 52.9917C167.99 52.6804 168.323 52.4308 168.698 52.2597C169.072 52.0886 169.479 52 169.891 52C170.302 52 170.709 52.0886 171.083 52.2597C171.458 52.4308 171.791 52.6804 172.061 52.9917C172.532 53.7879 172.781 54.6963 172.781 55.6217C172.781 56.5471 172.532 57.4555 172.061 58.2517C171.81 58.5856 171.481 58.8519 171.102 59.0265C170.723 59.2011 170.307 59.2785 169.891 59.2517V59.2517ZM168.891 53.9517C168.45 55.0354 168.45 56.248 168.891 57.3317C168.986 57.5235 169.133 57.6848 169.315 57.7977C169.497 57.9105 169.706 57.9702 169.921 57.9702C170.135 57.9702 170.345 57.9105 170.526 57.7977C170.708 57.6848 170.855 57.5235 170.951 57.3317C171.391 56.248 171.391 55.0354 170.951 53.9517C170.855 53.7599 170.708 53.5986 170.526 53.4858C170.345 53.3729 170.135 53.3132 169.921 53.3132C169.706 53.3132 169.497 53.3729 169.315 53.4858C169.133 53.5986 168.986 53.7599 168.891 53.9517V53.9517Z" fill="#284B00"/>
<path opacity="0.84" d="M175 52.13H177.83V59.13H176.33V53.46H175V52.13Z" fill="#284B00"/>
<path opacity="0.84" d="M175 64H177.83V71H176.33V65.33H175V64Z" fill="#284B00"/>
<path opacity="0.79" d="M5.14 71.2C4.72357 71.2277 4.30684 71.1507 3.9278 70.976C3.54877 70.8014 3.21949 70.5346 2.97 70.2C2.45499 69.4229 2.20264 68.5011 2.25 67.57C2.21545 66.6591 2.46725 65.7604 2.97 65C3.21949 64.6655 3.54877 64.3987 3.9278 64.224C4.30684 64.0493 4.72357 63.9723 5.14 64C5.55643 63.9723 5.97316 64.0493 6.3522 64.224C6.73124 64.3987 7.06051 64.6655 7.31 65C7.82502 65.7772 8.07736 66.6989 8.03 67.63C8.07736 68.5611 7.82502 69.4829 7.31 70.26C7.05397 70.5836 6.72181 70.8388 6.34318 71.0028C5.96454 71.1668 5.55119 71.2346 5.14 71.2V71.2ZM4.14 65.9C3.88176 66.4255 3.75154 67.0046 3.76 67.59C3.7348 68.1715 3.8479 68.7507 4.09 69.28C4.17595 69.4727 4.31645 69.636 4.49417 69.7498C4.67188 69.8635 4.87902 69.9227 5.09 69.92C5.30098 69.9227 5.50812 69.8635 5.68583 69.7498C5.86355 69.636 6.00406 69.4727 6.09 69.28C6.3321 68.7507 6.4452 68.1715 6.42 67.59C6.44406 67.0086 6.33102 66.4297 6.09 65.9C6.00301 65.7081 5.86226 65.5455 5.68478 65.4319C5.50731 65.3183 5.30071 65.2586 5.09 65.26C4.8827 65.2625 4.68039 65.324 4.50681 65.4373C4.33323 65.5507 4.19558 65.7112 4.11 65.9H4.14Z" fill="#284B00"/>
<path opacity="0.32" d="M13.04 71.2C12.6236 71.2277 12.2068 71.1507 11.8278 70.976C11.4488 70.8014 11.1195 70.5346 10.87 70.2C10.4097 69.4109 10.1671 68.5136 10.1671 67.6C10.1671 66.6864 10.4097 65.7892 10.87 65C11.1195 64.6655 11.4488 64.3987 11.8278 64.224C12.2068 64.0493 12.6236 63.9723 13.04 64C13.4564 63.9723 13.8732 64.0493 14.2522 64.224C14.6312 64.3987 14.9605 64.6655 15.21 65C15.6817 65.7962 15.9306 66.7046 15.9306 67.63C15.9306 68.5554 15.6817 69.4638 15.21 70.26C14.954 70.5836 14.6218 70.8388 14.2432 71.0028C13.8645 71.1668 13.4512 71.2346 13.04 71.2V71.2ZM12.04 65.9C11.5997 66.9837 11.5997 68.1964 12.04 69.28C12.1259 69.4727 12.2665 69.636 12.4442 69.7498C12.6219 69.8635 12.829 69.9227 13.04 69.92C13.251 69.9227 13.4581 69.8635 13.6358 69.7498C13.8135 69.636 13.9541 69.4727 14.04 69.28C14.2821 68.7507 14.3952 68.1715 14.37 67.59C14.3941 67.0086 14.281 66.4297 14.04 65.9C13.953 65.7081 13.8123 65.5455 13.6348 65.4319C13.4573 65.3183 13.2507 65.2586 13.04 65.26C12.8242 65.2527 12.6112 65.3096 12.4278 65.4236C12.2444 65.5375 12.099 65.7033 12.01 65.9H12.04Z" fill="#284B00"/>
<path opacity="0.3" d="M20.94 71.2C20.5236 71.2277 20.1068 71.1507 19.7278 70.976C19.3488 70.8014 19.0195 70.5346 18.77 70.2C18.3081 69.4117 18.0638 68.515 18.0621 67.6014C18.0603 66.6878 18.3012 65.7901 18.76 65C19.0095 64.6655 19.3388 64.3987 19.7178 64.224C20.0968 64.0493 20.5136 63.9723 20.93 64C21.3464 63.9723 21.7632 64.0493 22.1422 64.224C22.5212 64.3987 22.8505 64.6655 23.1 65C23.5717 65.7962 23.8206 66.7046 23.8206 67.63C23.8206 68.5554 23.5717 69.4638 23.1 70.26C22.8449 70.5821 22.5144 70.8364 22.1377 71.0004C21.7609 71.1643 21.3496 71.2329 20.94 71.2V71.2ZM19.94 65.9C19.4997 66.9837 19.4997 68.1964 19.94 69.28C20.0352 69.4718 20.1821 69.6332 20.3641 69.746C20.546 69.8588 20.7559 69.9186 20.97 69.9186C21.1841 69.9186 21.394 69.8588 21.5759 69.746C21.7579 69.6332 21.9048 69.4718 22 69.28C22.4403 68.1964 22.4403 66.9837 22 65.9C21.9048 65.7083 21.7579 65.5469 21.5759 65.4341C21.394 65.3213 21.1841 65.2615 20.97 65.2615C20.7559 65.2615 20.546 65.3213 20.3641 65.4341C20.1821 65.5469 20.0352 65.7083 19.94 65.9V65.9Z" fill="#284B00"/>
<path opacity="0.76" d="M25.7 64.13H28.53V71.13H27.03V65.46H25.7V64.13Z" fill="#284B00"/>
<path opacity="0.55" d="M30.76 64.13H33.56V71.13H32.06V65.46H30.76V64.13Z" fill="#284B00"/>
<path opacity="0.68" d="M38.9 71.2C38.4836 71.2277 38.0668 71.1507 37.6878 70.976C37.3088 70.8014 36.9795 70.5346 36.73 70.2C36.2742 69.4082 36.0368 68.5096 36.0421 67.596C36.0473 66.6824 36.2951 65.7865 36.76 65C37.0095 64.6655 37.3388 64.3987 37.7178 64.224C38.0968 64.0493 38.5136 63.9723 38.93 64C39.3464 63.9723 39.7632 64.0493 40.1422 64.224C40.5212 64.3987 40.8505 64.6655 41.1 65C41.5717 65.7962 41.8206 66.7046 41.8206 67.63C41.8206 68.5554 41.5717 69.4638 41.1 70.26C40.8411 70.5881 40.5041 70.8461 40.1197 71.0103C39.7354 71.1745 39.3161 71.2397 38.9 71.2V71.2ZM37.9 65.9C37.4598 66.9837 37.4598 68.1964 37.9 69.28C37.9952 69.4718 38.1421 69.6332 38.3241 69.746C38.506 69.8588 38.7159 69.9186 38.93 69.9186C39.1441 69.9186 39.354 69.8588 39.5359 69.746C39.7179 69.6332 39.8648 69.4718 39.96 69.28C40.4003 68.1964 40.4003 66.9837 39.96 65.9C39.8648 65.7083 39.7179 65.5469 39.5359 65.4341C39.354 65.3213 39.1441 65.2615 38.93 65.2615C38.7159 65.2615 38.506 65.3213 38.3241 65.4341C38.1421 65.5469 37.9952 65.7083 37.9 65.9V65.9Z" fill="#284B00"/>
<path opacity="0.89" d="M46.76 71.2C46.3436 71.2277 45.9268 71.1507 45.5478 70.976C45.1688 70.8014 44.8395 70.5346 44.59 70.2C44.1183 69.4038 43.8694 68.4954 43.8694 67.57C43.8694 66.6446 44.1183 65.7362 44.59 64.94C44.8594 64.6287 45.1926 64.3791 45.5671 64.208C45.9415 64.0369 46.3483 63.9483 46.76 63.9483C47.1717 63.9483 47.5785 64.0369 47.9529 64.208C48.3274 64.3791 48.6606 64.6287 48.93 64.94C49.4017 65.7362 49.6506 66.6446 49.6506 67.57C49.6506 68.4954 49.4017 69.4038 48.93 70.2C48.6805 70.5346 48.3512 70.8014 47.9722 70.976C47.5932 71.1507 47.1764 71.2277 46.76 71.2V71.2ZM45.76 65.9C45.3197 66.9837 45.3197 68.1963 45.76 69.28C45.8552 69.4718 46.0021 69.6331 46.1841 69.746C46.366 69.8588 46.5759 69.9185 46.79 69.9185C47.0041 69.9185 47.214 69.8588 47.3959 69.746C47.5779 69.6331 47.7248 69.4718 47.82 69.28C48.2603 68.1963 48.2603 66.9837 47.82 65.9C47.7248 65.7082 47.5779 65.5469 47.3959 65.4341C47.214 65.3212 47.0041 65.2615 46.79 65.2615C46.5759 65.2615 46.366 65.3212 46.1841 65.4341C46.0021 65.5469 45.8552 65.7082 45.76 65.9V65.9Z" fill="#284B00"/>
<path opacity="0.21" d="M51.56 64.13H54.39V71.13H52.89V65.46H51.56V64.13Z" fill="#284B00"/>
<path opacity="0.92" d="M56.59 64.13H59.42V71.13H57.92V65.46H56.59V64.13Z" fill="#284B00"/>
<path opacity="0.44" d="M61.62 64.13H64.45V71.13H62.95V65.46H61.62V64.13Z" fill="#284B00"/>
<path opacity="0.51" d="M69.76 71.2C69.3436 71.2277 68.9268 71.1507 68.5478 70.976C68.1688 70.8014 67.8395 70.5346 67.59 70.2C67.1183 69.4038 66.8694 68.4954 66.8694 67.57C66.8694 66.6446 67.1183 65.7362 67.59 64.94C67.8594 64.6287 68.1926 64.3791 68.5671 64.208C68.9415 64.0369 69.3483 63.9483 69.76 63.9483C70.1717 63.9483 70.5785 64.0369 70.9529 64.208C71.3274 64.3791 71.6606 64.6287 71.93 64.94C72.4017 65.7362 72.6506 66.6446 72.6506 67.57C72.6506 68.4954 72.4017 69.4038 71.93 70.2C71.6799 70.5339 71.3505 70.8002 70.9716 70.9748C70.5927 71.1494 70.1763 71.2268 69.76 71.2V71.2ZM68.76 65.9C68.3197 66.9837 68.3197 68.1963 68.76 69.28C68.8552 69.4718 69.0021 69.6331 69.1841 69.746C69.366 69.8588 69.5759 69.9185 69.79 69.9185C70.0041 69.9185 70.214 69.8588 70.3959 69.746C70.5779 69.6331 70.7248 69.4718 70.82 69.28C71.2603 68.1963 71.2603 66.9837 70.82 65.9C70.7248 65.7082 70.5779 65.5469 70.3959 65.4341C70.214 65.3212 70.0041 65.2615 69.79 65.2615C69.5759 65.2615 69.366 65.3212 69.1841 65.4341C69.0021 65.5469 68.8552 65.7082 68.76 65.9V65.9Z" fill="#284B00"/>
<path opacity="0.71" d="M74.55 64.13H77.38V71.13H75.88V65.46H74.55V64.13Z" fill="#284B00"/>
<path opacity="0.64" d="M79.58 64.13H82.41V71.13H80.91V65.46H79.58V64.13Z" fill="#284B00"/>
<path opacity="0.21" d="M87.76 71.2C87.3436 71.2277 86.9268 71.1507 86.5478 70.976C86.1688 70.8014 85.8395 70.5346 85.59 70.2C85.1183 69.4038 84.8694 68.4954 84.8694 67.57C84.8694 66.6446 85.1183 65.7362 85.59 64.94C85.8594 64.6287 86.1926 64.3791 86.5671 64.208C86.9415 64.0369 87.3483 63.9483 87.76 63.9483C88.1717 63.9483 88.5785 64.0369 88.9529 64.208C89.3273 64.3791 89.6606 64.6287 89.93 64.94C90.4017 65.7362 90.6505 66.6446 90.6505 67.57C90.6505 68.4954 90.4017 69.4038 89.93 70.2C89.6799 70.5339 89.3505 70.8002 88.9716 70.9748C88.5927 71.1494 88.1763 71.2268 87.76 71.2V71.2ZM86.76 65.9C86.3197 66.9837 86.3197 68.1963 86.76 69.28C86.8552 69.4718 87.0021 69.6331 87.1841 69.746C87.366 69.8588 87.5759 69.9185 87.79 69.9185C88.0041 69.9185 88.214 69.8588 88.3959 69.746C88.5779 69.6331 88.7248 69.4718 88.82 69.28C89.2602 68.1963 89.2602 66.9837 88.82 65.9C88.7248 65.7082 88.5779 65.5469 88.3959 65.4341C88.214 65.3212 88.0041 65.2615 87.79 65.2615C87.5759 65.2615 87.366 65.3212 87.1841 65.4341C87.0021 65.5469 86.8552 65.7082 86.76 65.9V65.9Z" fill="#284B00"/>
<path opacity="0.58" d="M95.65 71.2C95.2336 71.2277 94.8168 71.1507 94.4378 70.976C94.0588 70.8014 93.7295 70.5346 93.48 70.2C93.0083 69.4038 92.7595 68.4954 92.7595 67.57C92.7595 66.6446 93.0083 65.7362 93.48 64.94C93.7494 64.6287 94.0827 64.3791 94.4571 64.208C94.8315 64.0369 95.2383 63.9483 95.65 63.9483C96.0617 63.9483 96.4685 64.0369 96.8429 64.208C97.2174 64.3791 97.5506 64.6287 97.82 64.94C98.2917 65.7362 98.5406 66.6446 98.5406 67.57C98.5406 68.4954 98.2917 69.4038 97.82 70.2C97.5699 70.5339 97.2405 70.8002 96.8616 70.9748C96.4828 71.1494 96.0663 71.2268 95.65 71.2ZM94.65 65.9C94.2098 66.9837 94.2098 68.1963 94.65 69.28C94.7452 69.4718 94.8921 69.6331 95.0741 69.746C95.256 69.8588 95.4659 69.9185 95.68 69.9185C95.8941 69.9185 96.104 69.8588 96.2859 69.746C96.4679 69.6331 96.6148 69.4718 96.71 69.28C97.1503 68.1963 97.1503 66.9837 96.71 65.9C96.6148 65.7082 96.4679 65.5469 96.2859 65.4341C96.104 65.3212 95.8941 65.2615 95.68 65.2615C95.4659 65.2615 95.256 65.3212 95.0741 65.4341C94.8921 65.5469 94.7452 65.7082 94.65 65.9V65.9Z" fill="#284B00"/>
<path opacity="0.31" d="M100.41 64.13H103.24V71.13H101.76V65.46H100.41V64.13Z" fill="#284B00"/>
<path d="M108.58 71.2C108.164 71.2277 107.747 71.1507 107.368 70.976C106.989 70.8014 106.659 70.5346 106.41 70.2C105.938 69.4038 105.689 68.4954 105.689 67.57C105.689 66.6446 105.938 65.7362 106.41 64.94C106.684 64.6307 107.021 64.3842 107.399 64.2172C107.776 64.0502 108.186 63.9667 108.599 63.9724C109.012 63.9781 109.419 64.0728 109.792 64.2502C110.165 64.4275 110.495 64.6833 110.76 65C111.232 65.7962 111.481 66.7046 111.481 67.63C111.481 68.5554 111.232 69.4638 110.76 70.26C110.502 70.5844 110.169 70.84 109.788 71.004C109.408 71.1681 108.993 71.2354 108.58 71.2V71.2ZM107.58 65.9C107.14 66.9837 107.14 68.1964 107.58 69.28C107.675 69.4718 107.822 69.6332 108.004 69.746C108.186 69.8588 108.396 69.9186 108.61 69.9186C108.824 69.9186 109.034 69.8588 109.216 69.746C109.398 69.6332 109.545 69.4718 109.64 69.28C110.08 68.1964 110.08 66.9837 109.64 65.9C109.545 65.7083 109.398 65.5469 109.216 65.4341C109.034 65.3213 108.824 65.2615 108.61 65.2615C108.396 65.2615 108.186 65.3213 108.004 65.4341C107.822 65.5469 107.675 65.7083 107.58 65.9V65.9Z" fill="#284B00"/>
<path opacity="0.55" d="M113.34 64.13H116.17V71.13H114.67V65.46H113.34V64.13Z" fill="#284B00"/>
<path opacity="0.88" d="M121.51 71.2C121.094 71.2277 120.677 71.1507 120.298 70.976C119.919 70.8014 119.589 70.5346 119.34 70.2C118.868 69.4038 118.619 68.4954 118.619 67.57C118.619 66.6446 118.868 65.7362 119.34 64.94C119.609 64.6287 119.943 64.3791 120.317 64.208C120.691 64.0369 121.098 63.9483 121.51 63.9483C121.922 63.9483 122.329 64.0369 122.703 64.208C123.077 64.3791 123.411 64.6287 123.68 64.94C124.152 65.7362 124.401 66.6446 124.401 67.57C124.401 68.4954 124.152 69.4038 123.68 70.2C123.43 70.5339 123.1 70.8002 122.722 70.9748C122.343 71.1494 121.926 71.2268 121.51 71.2ZM120.51 65.9C120.07 66.9837 120.07 68.1963 120.51 69.28C120.605 69.4718 120.752 69.6331 120.934 69.746C121.116 69.8588 121.326 69.9185 121.54 69.9185C121.754 69.9185 121.964 69.8588 122.146 69.746C122.328 69.6331 122.475 69.4718 122.57 69.28C123.01 68.1963 123.01 66.9837 122.57 65.9C122.475 65.7082 122.328 65.5469 122.146 65.4341C121.964 65.3212 121.754 65.2615 121.54 65.2615C121.326 65.2615 121.116 65.3212 120.934 65.4341C120.752 65.5469 120.605 65.7082 120.51 65.9V65.9Z" fill="#284B00"/>
<path opacity="0.57" d="M126.27 64.13H129.1V71.13H127.6V65.46H126.27V64.13Z" fill="#284B00"/>
<path opacity="0.65" d="M131.3 64.13H134.13V71.13H132.63V65.46H131.3V64.13Z" fill="#284B00"/>
<path opacity="0.89" d="M136.33 64.13H139.16V71.13H137.66V65.46H136.33V64.13Z" fill="#284B00"/>
<path opacity="0.47" d="M144.5 71.2C144.084 71.2277 143.667 71.1507 143.288 70.976C142.909 70.8014 142.579 70.5346 142.33 70.2C141.858 69.4038 141.609 68.4954 141.609 67.57C141.609 66.6446 141.858 65.7362 142.33 64.94C142.599 64.6287 142.933 64.3791 143.307 64.208C143.681 64.0369 144.088 63.9483 144.5 63.9483C144.912 63.9483 145.319 64.0369 145.693 64.208C146.067 64.3791 146.401 64.6287 146.67 64.94C147.142 65.7362 147.391 66.6446 147.391 67.57C147.391 68.4954 147.142 69.4038 146.67 70.2C146.42 70.5339 146.09 70.8002 145.712 70.9748C145.333 71.1494 144.916 71.2268 144.5 71.2ZM143.5 65.9C143.06 66.9837 143.06 68.1963 143.5 69.28C143.595 69.4718 143.742 69.6331 143.924 69.746C144.106 69.8588 144.316 69.9185 144.53 69.9185C144.744 69.9185 144.954 69.8588 145.136 69.746C145.318 69.6331 145.465 69.4718 145.56 69.28C146 68.1963 146 66.9837 145.56 65.9C145.465 65.7082 145.318 65.5469 145.136 65.4341C144.954 65.3212 144.744 65.2615 144.53 65.2615C144.316 65.2615 144.106 65.3212 143.924 65.4341C143.742 65.5469 143.595 65.7082 143.5 65.9V65.9Z" fill="#284B00"/>
<path opacity="0.43" d="M149.26 64.13H152.09V71.13H150.59V65.46H149.26V64.13Z" fill="#284B00"/>
<path opacity="0.92" d="M156.891 71.2517C156.474 71.2794 156.057 71.2024 155.678 71.0277C155.299 70.8531 154.97 70.5863 154.721 70.2517C154.249 69.4555 154 68.5471 154 67.6217C154 66.6963 154.249 65.7879 154.721 64.9917C154.99 64.6804 155.323 64.4308 155.698 64.2597C156.072 64.0886 156.479 64 156.891 64C157.302 64 157.709 64.0886 158.083 64.2597C158.458 64.4308 158.791 64.6804 159.061 64.9917C159.532 65.7879 159.781 66.6963 159.781 67.6217C159.781 68.5471 159.532 69.4555 159.061 70.2517C158.81 70.5856 158.481 70.8519 158.102 71.0265C157.723 71.2011 157.307 71.2785 156.891 71.2517V71.2517ZM155.891 65.9517C155.45 67.0354 155.45 68.248 155.891 69.3317C155.986 69.5235 156.133 69.6848 156.315 69.7977C156.497 69.9105 156.706 69.9702 156.921 69.9702C157.135 69.9702 157.345 69.9105 157.526 69.7977C157.708 69.6848 157.855 69.5235 157.951 69.3317C158.391 68.248 158.391 67.0354 157.951 65.9517C157.855 65.7599 157.708 65.5986 157.526 65.4858C157.345 65.3729 157.135 65.3132 156.921 65.3132C156.706 65.3132 156.497 65.3729 156.315 65.4858C156.133 65.5986 155.986 65.7599 155.891 65.9517V65.9517Z" fill="#284B00"/>
<path opacity="0.5" d="M163.891 71.2517C163.474 71.2794 163.057 71.2024 162.678 71.0277C162.299 70.8531 161.97 70.5863 161.721 70.2517C161.249 69.4555 161 68.5471 161 67.6217C161 66.6963 161.249 65.7879 161.721 64.9917C161.99 64.6804 162.323 64.4308 162.698 64.2597C163.072 64.0886 163.479 64 163.891 64C164.302 64 164.709 64.0886 165.083 64.2597C165.458 64.4308 165.791 64.6804 166.061 64.9917C166.532 65.7879 166.781 66.6963 166.781 67.6217C166.781 68.5471 166.532 69.4555 166.061 70.2517C165.81 70.5856 165.481 70.8519 165.102 71.0265C164.723 71.2011 164.307 71.2785 163.891 71.2517V71.2517ZM162.891 65.9517C162.45 67.0354 162.45 68.248 162.891 69.3317C162.986 69.5235 163.133 69.6848 163.315 69.7977C163.497 69.9105 163.706 69.9702 163.921 69.9702C164.135 69.9702 164.345 69.9105 164.526 69.7977C164.708 69.6848 164.855 69.5235 164.951 69.3317C165.391 68.248 165.391 67.0354 164.951 65.9517C164.855 65.7599 164.708 65.5986 164.526 65.4858C164.345 65.3729 164.135 65.3132 163.921 65.3132C163.706 65.3132 163.497 65.3729 163.315 65.4858C163.133 65.5986 162.986 65.7599 162.891 65.9517V65.9517Z" fill="#284B00"/>
<path opacity="0.8" d="M170.891 71.2517C170.474 71.2794 170.057 71.2024 169.678 71.0277C169.299 70.8531 168.97 70.5863 168.721 70.2517C168.249 69.4555 168 68.5471 168 67.6217C168 66.6963 168.249 65.7879 168.721 64.9917C168.99 64.6804 169.323 64.4308 169.698 64.2597C170.072 64.0886 170.479 64 170.891 64C171.302 64 171.709 64.0886 172.083 64.2597C172.458 64.4308 172.791 64.6804 173.061 64.9917C173.532 65.7879 173.781 66.6963 173.781 67.6217C173.781 68.5471 173.532 69.4555 173.061 70.2517C172.81 70.5856 172.481 70.8519 172.102 71.0265C171.723 71.2011 171.307 71.2785 170.891 71.2517ZM169.891 65.9517C169.45 67.0354 169.45 68.248 169.891 69.3317C169.986 69.5235 170.133 69.6848 170.315 69.7977C170.497 69.9105 170.706 69.9702 170.921 69.9702C171.135 69.9702 171.344 69.9105 171.526 69.7977C171.708 69.6848 171.855 69.5235 171.951 69.3317C172.391 68.248 172.391 67.0354 171.951 65.9517C171.855 65.7599 171.708 65.5986 171.526 65.4858C171.344 65.3729 171.135 65.3132 170.921 65.3132C170.706 65.3132 170.497 65.3729 170.315 65.4858C170.133 65.5986 169.986 65.7599 169.891 65.9517V65.9517Z" fill="#284B00"/>
</g>
<defs>
<clipPath id="clip0">
<rect width="178" height="71" fill="white"/>
</clipPath>
</defs>
</svg>
